<svg id="Layer_3" enable-background="new 0 0 64 64" viewBox="0 0 64 64" xmlns="http://www.w3.org/2000/svg"><g><path d="m22.2 26.9c-1.4 1.3-2.2 3.1-2.2 5.1 0 1.9.8 3.7 2 5l19.8.1c1.4-1.3 2.2-3.1 2.2-5.1s-.8-3.8-2.2-5.1" fill="#cbc3b6"/><path d="m42.9 39.7c-.5-2.8-2.7-5-5.5-5.5-2-.4-3.9.1-5.4 1.1-1.5-1-3.4-1.5-5.4-1.1-2.7.5-4.9 2.8-5.5 5.5-.4 2.3.3 4.4 1.6 5.9l.2.2c-.5.6-.9 1.4-.9 2.2 0 1.7 1.3 3 3 3 .2 0 .4 0 .6-.1.2.9.4 1.9.4 2.9v8.2h12v-8.2c0-3 1.2-5.9 3.2-8.2 1.4-1.5 2.1-3.6 1.7-5.9z" fill="#d5cec2"/><path d="m28.5 34c-.6 0-1.3 0-1.9.1-2.7.5-4.9 2.8-5.5 5.5-.4 2.3.3 4.4 1.6 5.9l.2.2c-.5.7-.9 1.5-.9 2.3 0 1.7 1.3 3 3 3 .2 0 .4 0 .6-.1.2.9.4 1.9.4 2.9v8.2h.6c3.6-4 5.8-9.4 5.8-15.2 0-4.7-1.4-9.1-3.9-12.8z" fill="#e7e4dd"/><path d="m41.2 18.4c-.7-.8-1.4-1.8-1.9-2.7 1-.5 1.6-1.5 1.6-2.7 0-1.7-1.3-3-3-3v-8h-11.9v8.2c0 3-1.2 5.9-3.2 8.2-1.4 1.5-2 3.7-1.6 5.9.5 2.8 2.7 5 5.5 5.5 2 .4 3.9-.1 5.4-1.1 1.5 1 3.4 1.5 5.4 1.1 2.7-.5 4.9-2.8 5.5-5.5.3-2.3-.4-4.4-1.8-5.9z" fill="#d5cec2"/><path d="m26 10.2c0 3-1.2 5.9-3.2 8.2-1.4 1.5-2 3.7-1.6 5.9.5 2.8 2.7 5 5.5 5.5h.2c4.1-3.7 6.6-9 6.6-14.9 0-5-1.8-9.5-4.8-13h-2.7z" fill="#e7e4dd"/><g><path d="m28 28c-2.8 0-5-2.2-5-5h2c0 1.7 1.3 3 3 3z" fill="#fff"/></g><g><path d="m25 41h-2c0-2.8 2.2-5 5-5v2c-1.7 0-3 1.3-3 3z" fill="#fff"/></g><g><path d="m15.5 19.4h2v4.2h-2z" fill="#e7e4dd" transform="matrix(.707 -.707 .707 .707 -10.37 17.963)"/></g><g><path d="m14.4 41.5h4.2v2h-4.2z" fill="#e7e4dd" transform="matrix(.707 -.707 .707 .707 -25.223 24.12)"/></g><g><path d="m14 25.8h2v4.5h-2z" fill="#e7e4dd" transform="matrix(.447 -.894 .894 .447 -16.753 28.892)"/></g><g><path d="m12.8 35h4.5v2h-4.5z" fill="#e7e4dd" transform="matrix(.895 -.447 .447 .895 -14.507 10.498)"/></g><g><path d="m45.4 20.5h4.2v2h-4.2z" fill="#e7e4dd" transform="matrix(.707 -.707 .707 .707 -1.289 39.891)"/></g><g><path d="m46.5 40.4h2v4.2h-2z" fill="#e7e4dd" transform="matrix(.707 -.707 .707 .707 -16.14 46.034)"/></g><g><path d="m46.8 27h4.5v2h-4.5z" fill="#e7e4dd" transform="matrix(.895 -.447 .447 .895 -7.349 24.849)"/></g><g><path d="m48 33.8h2v4.5h-2z" fill="#e7e4dd" transform="matrix(.447 -.895 .895 .447 -5.108 63.732)"/></g><path d="m28 28v-2c-1.7 0-3-1.3-3-3h-2c0 2.8 2.2 5 5 5z"/><path d="m23 41h2c0-1.7 1.3-3 3-3v-2c-2.8 0-5 2.2-5 5z"/><path d="m15.5 19.4h2v4.2h-2z" transform="matrix(.707 -.707 .707 .707 -10.37 17.964)"/><path d="m14.4 41.5h4.2v2h-4.2z" transform="matrix(.707 -.707 .707 .707 -25.223 24.12)"/><path d="m14 25.8h2v4.5h-2z" transform="matrix(.447 -.894 .894 .447 -16.752 28.892)"/><path d="m12.8 35h4.5v2h-4.5z" transform="matrix(.894 -.447 .447 .894 -14.516 10.508)"/><path d="m45.4 20.5h4.2v2h-4.2z" transform="matrix(.707 -.707 .707 .707 -1.289 39.891)"/><path d="m46.5 40.4h2v4.2h-2z" transform="matrix(.707 -.707 .707 .707 -16.14 46.034)"/><path d="m46.8 27h4.5v2h-4.5z" transform="matrix(.894 -.447 .447 .894 -7.349 24.868)"/><path d="m48 33.8h2v4.5h-2z" transform="matrix(.447 -.895 .895 .447 -5.102 63.744)"/><path d="m43.1 37.2c1.2-1.4 1.9-3.3 1.9-5.2s-.7-3.8-1.9-5.2c.4-.7.7-1.5.8-2.3.5-2.5-.2-4.9-1.9-6.8-.5-.6-.9-1.1-1.3-1.8.8-.7 1.3-1.8 1.3-2.9 0-1.9-1.3-3.4-3-3.9v-7.1c0-.6-.4-1-1-1h-12c-.6 0-1 .4-1 1v8.2c0 2.7-1.1 5.4-3 7.5-1.3 1.5-2 3.3-2 5.3 0 1.4.3 2.6.9 3.8-1.2 1.4-1.9 3.2-1.9 5.2 0 1.9.7 3.8 2 5.2-.6 1.1-1 2.4-1 3.8 0 1.8.6 3.5 1.6 4.8-.4.7-.6 1.4-.6 2.2 0 2.1 1.7 3.9 3.8 4 .1.6.2 1.2.2 1.8v8.2c0 .6.4 1 1 1h12c.6 0 1-.4 1-1v-8.2c0-2.7 1.1-5.4 3-7.5 1.6-1.8 2.3-4.3 1.9-6.8-.2-.8-.5-1.6-.8-2.3zm-19.6-18.2c2.3-2.6 3.5-5.7 3.5-8.9v-7.1h10v7c0 .6.4 1 1 1 1.1 0 2 .9 2 2 0 .7-.4 1.4-1.1 1.8-.5.3-.7.9-.4 1.3.5 1 1.2 2 2 2.9 1.2 1.4 1.7 3.2 1.4 5.1-.4 2.4-2.3 4.3-4.7 4.7-1.2.2-2.4.1-3.5-.3 1.4-1.4 2.3-3.4 2.3-5.6h-2c0 3.3-2.7 6-6 6s-6-2.7-6-6c0-1.4.5-2.8 1.5-3.9zm-2.5 13c0-1.3.4-2.5 1.2-3.5 1.4 1.5 3.5 2.5 5.8 2.5 1.5 0 2.8-.4 4-1.1 1.7 1 3.7 1.3 5.6.9 1.6-.3 3.1-1.2 4.2-2.4.7 1 1.2 2.2 1.2 3.5s-.4 2.5-1.2 3.5c-1.1-1.2-2.6-2-4.2-2.4-2-.4-3.9-.1-5.6.9-1.2-.7-2.5-1.1-4-1.1-2.3 0-4.4 1-5.8 2.5-.8-.8-1.2-2-1.2-3.3zm19.5 13c-2.3 2.6-3.5 5.7-3.5 8.9v7.1h-10v-7.2c0-1-.1-2.1-.4-3.1-.1-.3-.3-.5-.5-.6s-.5-.1-.7-.1c-.1 0-.3 0-.4 0-1.1 0-2-.9-2-2 0-.5.2-1.1.6-1.4.2-.2.3-.4.3-.7s-.1-.5-.3-.7c-1-1.2-1.6-2.7-1.6-4.2 0-3.3 2.7-6 6-6s6 2.7 6 6h2c0-2.2-.9-4.1-2.3-5.6 1.1-.4 2.3-.6 3.5-.3 2.4.5 4.2 2.4 4.7 4.7.3 1.9-.2 3.8-1.4 5.2z"/></g></svg>