<svg height="512" viewBox="0 0 128 128" width="512" xmlns="http://www.w3.org/2000/svg"><g><g><circle cx="64" cy="45.195" fill="#9ef9f3" r="27.072"/><circle cx="64" cy="45.195" fill="#65f7ec" r="19.999"/><path d="m60.495 57.699h7.01v22.989h-7.01z" fill="#ffa685"/><path d="m72.381 45.2a8.382 8.382 0 1 0 -16.123 3.2 14.563 14.563 0 0 1 .917 6.416 7 7 0 0 0 .052 1.3 6.836 6.836 0 0 0 13.608-.932q0-.356-.035-.7a14.614 14.614 0 0 1 1.08-6.439 8.326 8.326 0 0 0 .501-2.845z" fill="#ffbda3"/></g><g fill="#680000"><path d="m44.3 28.381a1.744 1.744 0 0 0 1.273-.549c.228-.242.46-.478.7-.711a1.75 1.75 0 1 0 -2.453-2.5q-.4.395-.79.8a1.751 1.751 0 0 0 1.27 2.96z"/><path d="m54.075 72.141a1.75 1.75 0 0 0 .642-3.379 25.34 25.34 0 0 1 -12.59-36.335 1.75 1.75 0 0 0 -3.02-1.768 28.839 28.839 0 0 0 14.327 41.359 1.749 1.749 0 0 0 .641.123z"/><path d="m79.563 95.792h-2.9a1.75 1.75 0 0 0 0 3.5h2.9a2.022 2.022 0 0 1 2.02 2.021v.416a2.023 2.023 0 0 1 -2.02 2.021h-11.186a6.135 6.135 0 0 0 -6.127 6.127 1.75 1.75 0 1 0 3.5 0 2.629 2.629 0 0 1 2.627-2.627h11.186a5.527 5.527 0 0 0 5.52-5.521v-.416a5.526 5.526 0 0 0 -5.52-5.521z"/><path d="m69.667 95.792a1.75 1.75 0 0 0 0 3.5h.891a1.75 1.75 0 1 0 0-3.5z"/><path d="m65.75 97.542a1.75 1.75 0 0 0 -1.75-1.75h-13.062a2.021 2.021 0 0 1 0-4.042h8.685a6.135 6.135 0 0 0 6.127-6.127v-3.185h1.755a1.751 1.751 0 0 0 1.75-1.75v-7.153a28.823 28.823 0 1 0 -20.113-53.042 1.75 1.75 0 1 0 1.806 3 25.321 25.321 0 1 1 18.307 46.464v-7.989c.156-.121.313-.242.461-.375a8.6 8.6 0 0 0 2.869-6.405 8.743 8.743 0 0 0 -.044-.877 12.662 12.662 0 0 1 .982-5.663 10.126 10.126 0 0 0 -3.079-11.271 10.127 10.127 0 0 0 -15.8 11.7 12.758 12.758 0 0 1 .784 5.651 8.863 8.863 0 0 0 .065 1.626 8.578 8.578 0 0 0 3.253 5.6v.71a18.235 18.235 0 1 1 15.119-2.111 1.749 1.749 0 0 0 1.894 2.942 21.762 21.762 0 1 0 -17.013 2.794v14.4a1.751 1.751 0 0 0 1.75 1.75h1.754v3.185a2.629 2.629 0 0 1 -2.627 2.627h-8.685a5.521 5.521 0 0 0 0 11.042h13.062a1.751 1.751 0 0 0 1.75-1.751zm-7.877-49.815a6.7 6.7 0 0 1 -.394-3.765 6.571 6.571 0 0 1 5.178-5.268 7.149 7.149 0 0 1 1.356-.131 6.538 6.538 0 0 1 4.2 1.514 6.629 6.629 0 0 1 2.018 7.373 16.577 16.577 0 0 0 -1.177 7.215 5.017 5.017 0 0 1 .027.523 5.1 5.1 0 0 1 -2.544 4.412l-.016.011a5.089 5.089 0 0 1 -7.559-3.716 5.3 5.3 0 0 1 -.04-.981 16.113 16.113 0 0 0 -1.049-7.187zm4.372 15.865c.25.052.5.095.758.124a8.5 8.5 0 0 0 2.752-.135v15.357h-3.51z"/></g></g></svg>