<svg id="Capa_1" enable-background="new 0 0 512 512" height="512" viewBox="0 0 512 512" width="512" xmlns="http://www.w3.org/2000/svg"><g><path d="m398.5 202.5v234.5c0 37.22-37.5 67.5-37.5 67.5 37.22 0 67.5-30.28 67.5-67.5v-234.5z" fill="#d762a1"/><path d="m398.5 437c0 20.68-16.82 37.5-37.5 37.5s-37.5-16.82-37.5-37.5v-264c0-37.22-30.28-67.5-67.5-67.5s-67.5 30.28-67.5 67.5v264c0 20.68-16.82 37.5-37.5 37.5s-37.5-16.82-37.5-37.5v-234.5h-30v234.5c0 37.22 30.28 67.5 67.5 67.5s67.5-30.28 67.5-67.5v-264c0-20.68 16.82-37.5 37.5-37.5s37.5 16.82 37.5 37.5v264c0 37.22 30.28 67.5 67.5 67.5 20.678 0 37.5-30.28 37.5-67.5z" fill="#f472b8"/><path d="m188.5 7.5v45h-30l-30-22.5 30-22.5z" fill="#373e42"/><path d="m68.5 157.5 30 60h30v-60z" fill="#373e42"/><path d="m68.5 157.5h30v60h-30z" fill="#475055"/><path d="m148.5 142.5-20 30h-30v-15l20-15z" fill="#475055"/><path d="m118.5 142.5-20 30h-30l-20-30z" fill="#576267"/><path d="m8.5 7.5h150v45h-150z" fill="#475055"/><path d="m503.5 7.5v45h-30l-30-22.5 30-22.5z" fill="#373e42"/><path d="m383.5 157.5 30 60h30v-60z" fill="#373e42"/><path d="m383.5 157.5h30v60h-30z" fill="#475055"/><path d="m463.5 142.5-20 30h-30v-15l20-15z" fill="#475055"/><path d="m433.5 142.5-20 30h-30l-20-30z" fill="#576267"/><path d="m323.5 7.5h150v45h-150z" fill="#475055"/><path d="m503.5 0h-180c-4.143 0-7.5 3.358-7.5 7.5v56.833c0 13.371 3.92 26.318 11.337 37.442l48.663 72.996v42.729c0 4.142 3.357 7.5 7.5 7.5h7.5v212c0 16.542-13.458 30-30 30s-30-13.458-30-30v-264c0-41.355-33.645-75-75-75s-75 33.645-75 75v264c0 16.542-13.458 30-30 30s-30-13.458-30-30c0-4.142-3.357-7.5-7.5-7.5s-7.5 3.358-7.5 7.5c0 24.813 20.187 45 45 45s45-20.187 45-45v-264c0-33.084 26.916-60 60-60s60 26.916 60 60v264c0 24.813 20.187 45 45 45s45-20.187 45-45v-212h15v212c0 33.084-26.916 60-60 60s-60-26.916-60-60v-264c0-24.813-20.187-45-45-45s-45 20.187-45 45v264c0 33.084-26.916 60-60 60s-60-26.916-60-60v-212h15v182c0 4.142 3.357 7.5 7.5 7.5s7.5-3.358 7.5-7.5v-182h7.5c4.143 0 7.5-3.358 7.5-7.5v-42.729l48.663-72.995c7.417-11.124 11.337-24.071 11.337-37.443v-56.833c0-4.142-3.357-7.5-7.5-7.5h-180c-4.143 0-7.5 3.358-7.5 7.5v56.833c0 13.371 3.92 26.318 11.337 37.442l48.663 72.996v42.729c0 4.142 3.357 7.5 7.5 7.5h7.5v212c0 41.355 33.645 75 75 75s75-33.645 75-75v-264c0-16.542 13.458-30 30-30s30 13.458 30 30v264c0 41.355 33.645 75 75 75s75-33.645 75-75v-212h7.5c4.143 0 7.5-3.358 7.5-7.5v-42.729l48.663-72.995c7.417-11.124 11.337-24.071 11.337-37.443v-56.833c0-4.142-3.357-7.5-7.5-7.5zm-427.5 210v-30h45v30zm105-195v30h-165v-30zm-165 49.333v-4.333h165v4.333c0 10.399-3.049 20.47-8.817 29.122l-27.697 41.545h-91.972l-27.697-41.545c-5.768-8.652-8.817-18.722-8.817-29.122zm46.514 85.667h71.972l-10 15h-51.972zm433.486-135v30h-165v-30zm-105 195v-30h45v30zm48.486-45h-51.973l-10-15h71.972zm47.697-71.545-27.697 41.545h-91.972l-27.697-41.545c-5.768-8.652-8.817-18.722-8.817-29.122v-4.333h165v4.333c0 10.4-3.049 20.47-8.817 29.122z"/></g></svg>