<svg height="480pt" viewBox="-6 0 480 480" width="480pt" xmlns="http://www.w3.org/2000/svg"><path d="m344 360h96v104h-96zm0 0" fill="#f6bf9b"/><path d="m192 344h168v128h-168zm0 0" fill="#7da632"/><path d="m0 344h56v128h-56zm0 0" fill="#f6bf9b"/><path d="m56 472h136.398438c25.355468 0 49.671874-10.070312 67.601562-28s28-42.246094 28-67.601562v-112.398438h-152v80h-80zm0 0" fill="#8ac03f"/><path d="m152 264-12.503906-106.304688c-2.234375-18.957031 3.425781-38 15.648437-52.664062 13.214844-15.863281 32.792969-25.035156 53.441407-25.03125h247.414062l8 88s-48 24-96 24-112-16-112-16l16 88zm0 0" fill="#f6bf9b"/><path d="m40 344h32v128h-32zm0 0" fill="#7da632"/><path d="m360 360h16v104h-16zm0 0" fill="#ed917e"/><path d="m460.425781 160.839844c-.425781.238281-46.953125 23.160156-92.425781 23.160156-46.398438 0-109.433594-15.601562-110.054688-15.761719-2.636718-.660156-5.429687.0625-7.414062 1.921875s-2.890625 4.597656-2.402344 7.273438l14.269532 78.566406h-103.285157l-11.671875-99.199219c-2.058594-17.464843 3.449219-34.976562 15.132813-48.121093 11.679687-13.144532 28.425781-20.671876 46.011719-20.679688h247.414062v-16h-247.414062c-22.148438.007812-43.238282 9.480469-57.957032 26.03125s-21.664062 38.601562-19.085937 60.601562l11.457031 97.367188h-7c-4.417969 0-8 3.582031-8 8v72h-128v16h32v112h-32v16h360c4.417969 0 8-3.582031 8-8h72v-16h-72v-88h72v-16h-72v-8c0-4.417969-3.582031-8-8-8h-64v-72c0-4.417969-3.582031-8-8-8h-9.320312l-12.632813-69.449219c33.464844 7.792969 67.613281 12.296875 101.953125 13.449219 34.535156-1.40625 68.417969-9.847656 99.574219-24.800781zm-412.425781 191.160156h16v112h-16zm304 0v112h-104.390625c6.527344-4.101562 12.578125-8.910156 18.046875-14.34375 19.492188-19.386719 30.417969-45.765625 30.34375-73.257812v-24.398438zm-72 24.398438c.003906 48.382812-39.21875 87.605468-87.601562 87.601562h-112.398438v-112h56c4.417969 0 8-3.582031 8-8v-72h136zm0 0"/><path d="m64 240v-16h16v-16h-16v-16h-16v16h-16v16h16v16zm0 0"/><path d="m96 56v-16h16v-16h-16v-16h-16v16h-16v16h16v16zm0 0"/><path d="m304 48v-16h16v-16h-16v-16h-16v16h-16v16h16v16zm0 0"/><path d="m376 280v-16h16v-16h-16v-16h-16v16h-16v16h16v16zm0 0"/><path d="m232 104h152v16h-152zm0 0"/><path d="m400 104h16v16h-16zm0 0"/></svg>