<svg id="IV_x5F_solution" enable-background="new 0 0 300 300" height="512" viewBox="0 0 300 300" width="512" xmlns="http://www.w3.org/2000/svg"><circle cx="178" cy="150" fill="#e5efef" r="86"/><path d="m123.276 184h-30.552c-24.701 0-44.724-20.023-44.724-44.724v-95.276h120v95.276c0 24.701-20.023 44.724-44.724 44.724z" fill="#efefd2"/><path d="m123.276 188h-30.552c-26.867 0-48.724-21.857-48.724-48.724v-95.276c0-2.209 1.791-4 4-4h120c2.209 0 4 1.791 4 4v95.276c0 26.867-21.857 48.724-48.724 48.724zm-71.276-140v91.276c0 22.455 18.269 40.724 40.724 40.724h30.553c22.454 0 40.723-18.269 40.723-40.724v-91.276z" fill="#4c241d"/><path d="m114.124 172.346h-12.21c-23.127 0-41.876-18.748-41.876-41.876v-70.47h95.962v70.47c0 23.128-18.748 41.876-41.876 41.876z" fill="#fff"/><path d="m114.124 176.346h-12.21c-25.296 0-45.875-20.58-45.875-45.876v-70.47c0-2.209 1.791-4 4-4h95.961c2.209 0 4 1.791 4 4v70.47c0 25.296-20.58 45.876-45.876 45.876zm-50.085-112.346v66.47c0 20.885 16.991 37.876 37.875 37.876h12.21c20.885 0 37.876-16.991 37.876-37.876v-66.47z" fill="#4c241d"/><path d="m60.284 86.43 16.823 7.45c8.596 3.807 18.249 4.497 27.299 1.952l.069-.02c10.409-2.927 21.562-1.473 30.873 4.025l.01.006c4.312 2.546 9.725 2.286 13.773-.662l6.869-5.001v40.37c0 20.874-16.922 37.796-37.796 37.796h-20.261c-20.916 0-37.856-16.988-37.796-37.904z" fill="#d8e591"/><path d="m118.204 176.346h-20.262c-11.187 0-21.697-4.362-29.596-12.284-7.899-7.921-12.231-18.444-12.2-29.631l.137-48.012c.004-1.351.689-2.609 1.823-3.344 1.133-.735 2.561-.849 3.797-.302l16.823 7.45c7.726 3.422 16.461 4.046 24.597 1.759 11.469-3.226 23.859-1.61 34.059 4.412 2.951 1.742 6.634 1.565 9.395-.445l6.869-5.002c1.217-.885 2.827-1.014 4.168-.331s2.186 2.06 2.186 3.565v40.369c0 23.046-18.75 41.796-41.796 41.796zm-53.938-83.778-.12 41.885c-.026 9.045 3.478 17.555 9.865 23.96s14.886 9.933 23.931 9.933h20.262c18.635 0 33.796-15.161 33.796-33.796v-32.509l-.515.375c-5.342 3.89-12.471 4.232-18.162.872-8.339-4.924-18.455-6.242-27.766-3.625-9.991 2.81-20.646 2.047-30.07-2.126z" fill="#4c241d"/><path d="m108 232.115c-8.837 0-16-7.163-16-16v-16.115h32v16.115c0 8.837-7.163 16-16 16z" fill="#6b4f5b"/><path d="m108 236.115c-11.028 0-20-8.972-20-20v-16.115c0-2.209 1.791-4 4-4h32c2.209 0 4 1.791 4 4v16.115c0 11.028-8.972 20-20 20zm-12-32.115v12.115c0 6.617 5.383 12 12 12s12-5.383 12-12v-12.115z" fill="#4c241d"/><path d="m197.943 268c-9.876 0-17.976-8.034-18.056-17.91l-.166-20.342c-.062-7.581-6.28-13.748-13.86-13.748-7.643 0-13.861 6.218-13.861 13.861v14.139c0 13.234-10.766 24-24 24s-24-10.766-24-24v-11.504c0-2.209 1.791-4 4-4s4 1.791 4 4v11.504c0 8.822 7.178 16 16 16s16-7.178 16-16v-14.139c0-12.054 9.807-21.861 21.861-21.861 11.956 0 21.763 9.727 21.86 21.683l.166 20.342c.044 5.5 4.556 9.975 10.056 9.975 5.545 0 10.057-4.512 10.057-10.057v-145.943c0-2.209 1.791-4 4-4s4 1.791 4 4v145.943c0 9.956-8.101 18.057-18.057 18.057z" fill="#4c241d"/><path d="m212 163.808c-4.418 0-8-3.582-8-8v-19.808c0-4.418 3.582-8 8-8 4.418 0 8 3.582 8 8v19.808c0 4.418-3.582 8-8 8z" fill="#9dc1e4"/><path d="m212 167.808c-6.617 0-12-5.383-12-12v-19.808c0-6.617 5.383-12 12-12s12 5.383 12 12v19.808c0 6.616-5.383 12-12 12zm0-35.808c-2.206 0-4 1.794-4 4v19.808c0 2.206 1.794 4 4 4s4-1.794 4-4v-19.808c0-2.206-1.794-4-4-4z" fill="#4c241d"/><path d="m106.679 135.653c-3.66 0-7.358-.735-10.886-2.247-7.823-3.352-16.678-4.062-24.935-1.998l-8.746 2.187c-2.143.539-4.315-.768-4.851-2.91-.536-2.143.767-4.315 2.91-4.851l8.746-2.187c9.942-2.485 20.606-1.631 30.026 2.405 7.376 3.163 15.81 1.538 21.482-4.137l.745-.745c1.562-1.562 4.095-1.562 5.657 0s1.562 4.095 0 5.657l-.745.745c-5.285 5.288-12.271 8.081-19.403 8.081z" fill="#4c241d"/><path d="m88 184h40.077v20h-40.077z" fill="#c1dbdc"/><g fill="#4c241d"><path d="m128.077 208h-40.077c-2.209 0-4-1.791-4-4v-20c0-2.209 1.791-4 4-4h40.077c2.209 0 4 1.791 4 4v20c0 2.209-1.791 4-4 4zm-36.077-8h32.077v-12h-32.077z"/><path d="m228 52c-2.209 0-4-1.791-4-4v-12c0-2.209 1.791-4 4-4s4 1.791 4 4v12c0 2.209-1.791 4-4 4z"/><path d="m228 80c-2.209 0-4-1.791-4-4v-12c0-2.209 1.791-4 4-4s4 1.791 4 4v12c0 2.209-1.791 4-4 4z"/><path d="m220 60h-12c-2.209 0-4-1.791-4-4s1.791-4 4-4h12c2.209 0 4 1.791 4 4s-1.791 4-4 4z"/><path d="m248 60h-12c-2.209 0-4-1.791-4-4s1.791-4 4-4h12c2.209 0 4 1.791 4 4s-1.791 4-4 4z"/><circle cx="248" cy="104" r="4"/><circle cx="44" cy="200" r="4"/><path d="m50 256c-7.72 0-14-6.28-14-14s6.28-14 14-14 14 6.28 14 14-6.28 14-14 14zm0-20c-3.309 0-6 2.691-6 6s2.691 6 6 6 6-2.691 6-6-2.691-6-6-6z"/></g></svg>