<svg id="Capa_1" enable-background="new 0 0 506.581 506.581" height="512" viewBox="0 0 506.581 506.581" width="512" xmlns="http://www.w3.org/2000/svg"><g><g><g><path d="m372.06 56.027h-237.539v-33.164c0-8.529 6.914-15.442 15.442-15.442h206.661c8.525 0 15.436 6.911 15.436 15.436z" fill="#e1d3ce"/></g><g><path d="m372.057 22.853v33.174h-25.13v-33.174c0-8.519-6.906-15.434-15.434-15.434h25.13c8.528-.001 15.434 6.915 15.434 15.434z" fill="#cdbfba"/></g><g><path d="m372.657 136.941 6.208-18.635h-251.149l6.208 18.635c2.107 6.324-.034 13.288-5.329 17.337l-36.711 28.073c-3.863 2.954-6.129 7.539-6.129 12.402v268.907c0 19.606 15.894 35.499 35.499 35.499h264.07c19.606 0 35.499-15.894 35.499-35.499v-268.906c0-4.863-2.266-9.449-6.129-12.402l-36.711-28.073c-5.292-4.049-7.432-11.014-5.326-17.338z" fill="#c9f0ff"/></g><g><path d="m420.824 194.759v268.906c0 19.6-15.89 35.499-35.499 35.499h-25.13c19.61 0 35.499-15.899 35.499-35.499v-259.952c0-4.868-2.266-9.449-6.124-12.407l-36.716-28.069c-5.293-4.056-7.43-11.022-5.323-17.344l6.203-27.584h25.13l-6.203 18.63c-2.107 6.322.03 13.287 5.323 17.344l36.716 28.069c3.859 2.958 6.124 7.539 6.124 12.407z" fill="#9ae7fd"/></g><g><path d="m400.105 118.306h-293.628c-9.841 0-17.82-7.978-17.82-17.82v-26.611c0-9.841 7.978-17.82 17.82-17.82h293.627c9.841 0 17.82 7.978 17.82 17.82v26.612c0 9.841-7.978 17.819-17.819 17.819z" fill="#83bfff"/></g><g><path d="m417.925 73.876v26.615c0 9.835-7.974 17.819-17.819 17.819h-26.12c9.835 0 17.819-7.984 17.819-17.819v-26.615c0-9.844-7.984-17.819-17.819-17.819h26.12c9.845 0 17.819 7.974 17.819 17.819z" fill="#5ea5e5"/></g><g><path d="m400.104 125.727h-293.627c-13.918 0-25.24-11.323-25.24-25.24v-26.612c0-13.918 11.322-25.24 25.24-25.24h293.627c13.918 0 25.241 11.323 25.241 25.24v26.612c0 13.917-11.323 25.24-25.241 25.24zm-293.627-62.252c-5.734 0-10.399 4.665-10.399 10.4v26.612c0 5.734 4.665 10.4 10.399 10.4h293.627c5.734 0 10.4-4.665 10.4-10.4v-26.612c0-5.734-4.666-10.4-10.4-10.4z"/></g><g><path d="m385.326 506.581h-66.479c-4.099 0-7.42-3.322-7.42-7.42 0-4.099 3.322-7.42 7.42-7.42h66.479c15.482 0 28.079-12.596 28.079-28.079v-268.908c0-2.535-1.202-4.967-3.216-6.506l-36.712-28.074c-7.809-5.972-10.968-16.25-7.862-25.576l2.955-8.87h-230.56l2.955 8.869c3.107 9.327-.052 19.605-7.862 25.577l-36.711 28.072c-2.014 1.54-3.216 3.973-3.216 6.507v268.908c0 15.482 12.596 28.079 28.079 28.079h163.201c4.099 0 7.42 3.322 7.42 7.42 0 4.099-3.322 7.42-7.42 7.42h-163.201c-23.666 0-42.92-19.253-42.92-42.919v-268.907c0-7.126 3.38-13.965 9.041-18.295l36.712-28.073c2.778-2.124 3.902-5.78 2.797-9.097l-6.209-18.636c-.754-2.263-.374-4.75 1.021-6.685s3.634-3.081 6.019-3.081h251.148c2.385 0 4.625 1.146 6.019 3.081 1.395 1.935 1.774 4.422 1.02 6.685l-6.209 18.635c-1.104 3.317.019 6.973 2.797 9.097l36.711 28.073c5.662 4.327 9.043 11.167 9.043 18.296v268.908c.001 23.665-19.253 42.919-42.919 42.919z"/></g><g><path d="m372.06 63.447h-237.539c-4.098 0-7.42-3.322-7.42-7.42v-33.164c0-12.607 10.256-22.863 22.863-22.863h206.662c12.603 0 22.856 10.253 22.856 22.857v33.17c0 4.098-3.323 7.42-7.422 7.42zm-230.118-14.84h222.698l.001-25.75c0-4.42-3.596-8.016-8.016-8.016h-206.661c-4.423 0-8.022 3.599-8.022 8.022z"/></g><g><path d="m85.756 231.298h335.069v167.616h-335.069z" fill="#0396fd"/></g><g><path d="m395.694 231.298h25.132v167.616h-25.132z" fill="#0077f0"/></g><g><path d="m420.825 406.335h-335.069c-4.098 0-7.42-3.322-7.42-7.42v-167.617c0-4.098 3.322-7.42 7.42-7.42h64.968c4.098 0 7.42 3.322 7.42 7.42s-3.322 7.42-7.42 7.42h-57.547v152.776h320.228v-152.776h-228.381c-4.098 0-7.42-3.322-7.42-7.42s3.322-7.42 7.42-7.42h235.802c4.099 0 7.42 3.322 7.42 7.42v167.617c0 4.098-3.322 7.42-7.421 7.42z"/></g><g><g><g><path d="m226.413 286.872h-80.14c-4.098 0-7.42-3.322-7.42-7.42 0-4.099 3.322-7.42 7.42-7.42h80.14c4.098 0 7.42 3.322 7.42 7.42s-3.322 7.42-7.42 7.42z"/></g><g><path d="m360.309 286.872h-99.598c-4.099 0-7.42-3.322-7.42-7.42 0-4.099 3.322-7.42 7.42-7.42h99.598c4.099 0 7.42 3.322 7.42 7.42.001 4.098-3.321 7.42-7.42 7.42z"/></g></g><g><g><path d="m360.309 358.182h-40.07c-4.099 0-7.42-3.322-7.42-7.42s3.322-7.42 7.42-7.42h40.07c4.099 0 7.42 3.322 7.42 7.42s-3.321 7.42-7.42 7.42z"/></g><g><path d="m285.611 358.182h-139.339c-4.098 0-7.42-3.322-7.42-7.42s3.322-7.42 7.42-7.42h139.338c4.099 0 7.42 3.322 7.42 7.42s-3.321 7.42-7.419 7.42z"/></g></g><g><g><path d="m360.309 322.527h-214.037c-4.098 0-7.42-3.322-7.42-7.42 0-4.099 3.322-7.42 7.42-7.42h214.037c4.099 0 7.42 3.322 7.42 7.42.001 4.098-3.321 7.42-7.42 7.42z"/></g></g></g></g></g></svg>