<svg id="Layer_3" enable-background="new 0 0 64 64" height="512" viewBox="0 0 64 64" width="512" xmlns="http://www.w3.org/2000/svg"><g><path d="m57.019 25.99c-.845-.039-1.741-.236-2.643-.582-1.351-.519-2.861.22-3.323 1.591-2.009 5.961-3.033 12.209-3.033 18.499 0 5.638.823 11.245 2.443 16.645l.257.858h-37.401l.257-.858c1.62-5.4 2.443-11.007 2.443-16.645 0-6.29-1.025-12.538-3.033-18.499-.462-1.371-1.972-2.11-3.323-1.591-.902.346-1.798.544-2.643.582l-4.981-5.201c.162-2.166 1.339-4.633 3.387-6.681 2.691-2.691 6.101-3.871 8.606-3.229.065-2.704 2.267-4.879 4.987-4.879 1.024 0 1.975.31 2.768.839.976-.584 2.005-1.088 3.078-1.503.693-.268 1.285-.745 1.641-1.397l.143-.261c.243-.444.37-.942.37-1.448v-1.23h10v1.233c0 .504.126.999.367 1.441l.142.26c.356.653.948 1.131 1.641 1.4 1.075.416 2.105.921 3.082 1.505.794-.529 1.744-.839 2.768-.839 2.72 0 4.922 2.175 4.988 4.879 2.504-.643 5.915.538 8.606 3.229 2.048 2.048 3.225 4.515 3.387 6.681z" fill="#fadfb2"/><g><path d="m25.019 11h-2c0-.844-.26-1.65-.751-2.333l1.624-1.167c.737 1.023 1.127 2.234 1.127 3.5z" fill="#efbe9a"/></g><g><path d="m41.018 11h-2c0-1.332.428-2.593 1.236-3.647l1.587 1.217c-.538.701-.823 1.542-.823 2.43z" fill="#efbe9a"/></g><g><path d="m27.05 38.466h2.001v11.168h-2.001z" fill="#d5cec2" transform="matrix(.707 -.707 .707 .707 -22.933 32.739)"/></g><g><path d="m30.463 54.287h10.496v2.001h-10.496z" fill="#d5cec2" transform="matrix(.707 -.707 .707 .707 -28.632 41.434)"/></g><g><path d="m34.343 29.999h11.314v2.001h-11.314z" fill="#d5cec2" transform="matrix(.707 -.707 .707 .707 -10.206 37.355)"/></g><g><path d="m23.102 18.591h2v11.022h-2z" fill="#d5cec2" transform="matrix(.707 -.707 .707 .707 -9.984 24.102)"/></g><g><path d="m28 21h2v3h-2z" fill="#b8b9b3"/></g><g><path d="m21 28h3v2h-3z" fill="#b8b9b3"/></g><g><path d="m34 28h2v3h-2z" fill="#b8b9b3"/></g><g><path d="m40 34.999h3v1.999h-3z" fill="#b8b9b3"/></g><g><path d="m29 52.999h2v2.999h-2z" fill="#b8b9b3"/></g><g><path d="m35 59.999h3v1.999h-3z" fill="#b8b9b3"/></g><g><path d="m32 40.999h2v2.999h-2z" fill="#b8b9b3"/></g><g><path d="m25 47.999h3v1.999h-3z" fill="#b8b9b3"/></g><g fill="#c16b3f"><circle cx="19" cy="19" r="3"/><circle cx="23" cy="39" r="3"/><circle cx="40.959" cy="49.959" r="3"/><circle cx="44.959" cy="25.959" r="3"/></g><path d="m20.185 16.245c-.364-.157-.764-.245-1.185-.245-1.657 0-3 1.343-3 3 0 .822.331 1.565.866 2.107 1.94-.768 3.317-2.65 3.319-4.862z" fill="#e39854"/><path d="m24.185 36.245c-.364-.157-.764-.245-1.185-.245-1.657 0-3 1.343-3 3 0 .822.331 1.565.866 2.107 1.94-.768 3.317-2.65 3.319-4.862z" fill="#e39854"/><path d="m42.144 47.204c-.364-.157-.764-.245-1.185-.245-1.657 0-3 1.343-3 3 0 .822.331 1.565.866 2.107 1.94-.768 3.317-2.649 3.319-4.862z" fill="#e39854"/><path d="m46.144 23.204c-.364-.157-.764-.245-1.185-.245-1.657 0-3 1.343-3 3 0 .822.331 1.565.866 2.107 1.94-.768 3.317-2.649 3.319-4.862z" fill="#e39854"/><g><path d="m12.022 24.578c-.877-.413-1.855-.449-2.757-.105-.803.309-1.587.482-2.331.517l.092 1.998c.958-.044 1.952-.262 2.955-.647.388-.147.81-.131 1.189.047.395.186.688.516.828.93 1.978 5.869 2.981 11.985 2.981 18.178 0 5.543-.808 11.047-2.4 16.358l-.258.857 1.916.575.258-.857c1.649-5.498 2.485-11.195 2.485-16.934 0-6.411-1.038-12.742-3.086-18.817-.31-.921-.992-1.687-1.872-2.1z"/><path d="m51.938 24.577c-.879.414-1.562 1.179-1.873 2.101-2.047 6.076-3.085 12.407-3.085 18.817 0 5.74.836 11.437 2.485 16.934l.257.857 1.916-.575-.257-.857c-1.593-5.31-2.4-10.813-2.4-16.358 0-6.193 1.002-12.31 2.98-18.178.14-.414.434-.744.829-.93.381-.178.804-.193 1.188-.048 1.004.386 1.999.604 2.956.648l.092-1.998c-.743-.035-1.527-.208-2.332-.518-.898-.344-1.877-.307-2.756.105z"/><path d="m13.744 11.846c.298.078.609.014.852-.171.243-.184.389-.469.396-.773.053-2.188 1.805-3.903 3.988-3.903h.002c.245 0 .482.03.715.072.072.013.143.031.215.048.166.04.327.091.484.151.069.026.138.049.206.079 1.398.624 2.378 2.022 2.378 3.649h2c0-1.518-.572-2.903-1.505-3.961.561-.283 1.131-.546 1.711-.771.938-.363 1.704-1.02 2.158-1.85l.143-.262c.323-.589.493-1.256.493-1.928v-1.227h-2v1.228c0 .338-.085.672-.247.968l-.143.262c-.228.417-.627.752-1.125.944-.928.359-1.838.788-2.713 1.278-.032-.017-.067-.028-.099-.045-.155-.078-.314-.15-.476-.214-.066-.026-.133-.05-.201-.073-.144-.051-.29-.096-.438-.136-.072-.02-.144-.039-.218-.056-.154-.035-.311-.063-.469-.086-.065-.01-.13-.022-.195-.03-.222-.025-.447-.041-.675-.041-2.891 0-5.279 2.001-5.856 4.728-2.725-.203-5.925 1.153-8.444 3.673-2.15 2.15-3.49 4.816-3.677 7.314l1.995.149c.149-1.998 1.307-4.259 3.097-6.048 2.344-2.348 5.422-3.535 7.648-2.968z"/><path d="m59.281 13.399c-2.521-2.52-5.705-3.884-8.444-3.673-.578-2.726-2.965-4.727-5.857-4.727-.229 0-.453.016-.675.041-.066.007-.13.02-.195.03-.158.023-.315.05-.469.086-.073.017-.145.036-.218.056-.149.04-.295.085-.438.136-.067.024-.134.047-.201.073-.163.064-.321.136-.476.214-.033.016-.067.028-.099.045-.875-.491-1.787-.92-2.717-1.279-.498-.193-.897-.529-1.125-.947l-.142-.259c-.16-.295-.245-.628-.245-.963v-1.233h-2v1.232c0 .668.168 1.332.489 1.92l.142.259c.453.833 1.219 1.491 2.159 1.855.583.225 1.154.489 1.716.773-.933 1.058-1.505 2.442-1.505 3.96h2c0-1.627.98-3.025 2.378-3.649.067-.03.137-.053.206-.079.157-.06.318-.111.484-.151.071-.017.143-.035.215-.048.233-.042.47-.072.715-.072h.002c2.183 0 3.935 1.714 3.988 3.903.007.305.153.589.396.773s.558.248.852.171c2.231-.568 5.303.621 7.649 2.968 1.79 1.79 2.948 4.051 3.097 6.048l1.995-.149c-.187-2.498-1.527-5.164-3.677-7.314z"/><path d="m31.253 48.706 1.415-1.415-6.274-6.274c.351-.595.566-1.279.566-2.018 0-2.206-1.794-4-4-4s-4 1.794-4 4c0 2.205 1.794 3.999 4 3.999.739 0 1.424-.215 2.018-.566zm-10.292-9.707c0-1.104.897-2 2-2s2 .896 2 2c0 1.103-.897 1.999-2 1.999s-2-.896-2-1.999z"/><path d="m40.961 45.999c-2.206 0-4 1.794-4 4 0 .739.215 1.423.566 2.018l-6.274 6.274 1.415 1.415 6.274-6.274c.595.351 1.279.566 2.019.566 2.206 0 4-1.794 4-3.999-.001-2.206-1.794-4-4-4zm0 5.999c-1.103 0-2-.896-2-1.999 0-1.104.897-2 2-2s2 .896 2 2c-.001 1.103-.898 1.999-2 1.999z"/><path d="m48.96 26c0-2.206-1.794-4-4-4s-4 1.795-4 4c0 .739.215 1.424.566 2.018l-6.274 6.273 1.415 1.415 6.274-6.274c.596.353 1.28.568 2.02.568 2.206 0 3.999-1.794 3.999-4zm-3.999 2c-1.103 0-2-.897-2-2s.897-2 2-2 2 .897 2 2c-.001 1.103-.898 2-2 2z"/><path d="m28.668 27.292-6.274-6.274c.351-.595.566-1.279.566-2.019 0-2.206-1.794-4-4-4s-4 1.794-4 4 1.794 4 4 4c.739 0 1.424-.215 2.019-.566l6.274 6.274zm-11.707-8.292c0-1.103.897-2 2-2s2 .897 2 2-.897 2-2 2c-1.103-.001-2-.898-2-2z"/><path d="m27.961 21h2v3h-2z"/><path d="m20.961 28h3v2h-3z"/><path d="m33.961 28h2v3h-2z"/><path d="m39.961 34.999h3v1.999h-3z"/><path d="m28.961 52.999h2v2.999h-2z"/><path d="m34.961 59.999h3v1.999h-3z"/><path d="m31.961 40.999h2v2.999h-2z"/><path d="m24.961 47.999h3v1.999h-3z"/></g></g></svg>