<svg height="496pt" viewBox="-80 0 496 496" width="496pt" xmlns="http://www.w3.org/2000/svg"><path d="m336 424v40c0 17.679688-14.40625 32-32 32h-272c-17.59375 0-32-14.320312-32-32v-40c0 17.601562 14.40625 32 32 32h272c17.59375 0 32-14.398438 32-32zm0 0" fill="#965353"/><path d="m336 72.078125v351.921875c0 17.601562-14.40625 32-32 32h-272c-17.59375 0-32-14.398438-32-32v-392c0-17.601562 14.40625-32 32-32h272c17.59375 0 32 14.398438 32 32zm0 0" fill="#844747"/><path d="m55.992188 416.007812c-4.425782 0-8-3.574218-8-8v-191.839843c0-4.425781 3.574218-8 8-8 4.421874 0 8 3.574219 8 8v191.839843c0 4.425782-3.578126 8-8 8zm0 0" fill="#ccd1d9"/><path d="m51.976562 66.640625c-4.402343 0-8 3.597656-8 8v13.359375 16 8.078125 16 8 16 8 16 8 16 8.082031c0 4.398438 3.597657 8 8 8h8c4.398438 0 8-3.601562 8-8v-8.082031c0-4.398437 0-11.597656 0-16v-8c0-4.398437 0-11.597656 0-16v-8c0-4.398437 0-11.597656 0-16v-8c0-4.398437 0-11.597656 0-16v-8.078125c0-4.398438 0-11.601562 0-16v-13.359375c0-4.402344-3.601562-8-8-8zm0 0" fill="#e6e9ed"/><path d="m55.992188 80.007812c-13.230469 0-24-10.769531-24-24 0-13.230468 10.769531-24 24-24 13.230468 0 24 10.769532 24 24 0 13.230469-10.769532 24-24 24zm0-32c-4.417969 0-8 3.585938-8 8 0 4.417969 3.582031 8 8 8 4.414062 0 8-3.582031 8-8 0-4.414062-3.585938-8-8-8zm0 0" fill="#f5f7fa"/><g fill="#ccd1d9"><path d="m43.976562 92h24v8h-24zm0 0"/><path d="m43.976562 116.015625h24v8h-24zm0 0"/><path d="m43.976562 140.03125h24v8h-24zm0 0"/><path d="m43.976562 164.046875h24v8h-24zm0 0"/><path d="m43.976562 188.0625h24v8h-24zm0 0"/><path d="m111.984375 32.007812c4.421875 0 8 3.578126 8 8v191.839844c0 4.425782-3.578125 8-8 8-4.425781 0-8-3.574218-8-8v-191.839844c0-4.421874 3.574219-8 8-8zm0 0"/></g><path d="m116 381.375c4.398438 0 8-3.597656 8-8v-13.359375c0-4.398437 0-11.601563 0-16v-8.078125c0-4.402344 0-11.601562 0-16v-8c0-4.402344 0-11.601562 0-16v-8c0-4.402344 0-11.601562 0-16v-8c0-4.402344 0-11.601562 0-16v-8.082031c0-4.398438-3.601562-8-8-8h-8c-4.398438 0-8 3.601562-8 8v8.082031 16 8 16 8 16 8 16 8.078125 16 13.359375c0 4.402344 3.601562 8 8 8zm0 0" fill="#e6e9ed"/><path d="m111.984375 368.007812c13.230469 0 24 10.769532 24 24 0 13.230469-10.769531 24-24 24s-24-10.769531-24-24c0-13.230468 10.769531-24 24-24zm0 32c4.414063 0 8-3.582031 8-8 0-4.414062-3.585937-8-8-8-4.417969 0-8 3.585938-8 8 0 4.417969 3.582031 8 8 8zm0 0" fill="#f5f7fa"/><path d="m100 348.015625h24v8h-24zm0 0" fill="#ccd1d9"/><path d="m100 324h24v8h-24zm0 0" fill="#ccd1d9"/><path d="m100 299.984375h24v8h-24zm0 0" fill="#ccd1d9"/><path d="m100 275.96875h24v8h-24zm0 0" fill="#ccd1d9"/><path d="m100 251.953125h24v8h-24zm0 0" fill="#ccd1d9"/><path d="m168 416.007812c-4.425781 0-8-3.574218-8-8v-191.839843c0-4.425781 3.574219-8 8-8s8 3.574219 8 8v191.839843c0 4.425782-3.574219 8-8 8zm0 0" fill="#ccd1d9"/><path d="m163.984375 66.640625c-4.398437 0-8 3.597656-8 8v13.359375 16 8.078125 16 8 16 8 16 8 16 8.082031c0 4.398438 3.601563 8 8 8h8c4.398437 0 8-3.601562 8-8v-8.082031c0-4.398437 0-11.597656 0-16v-8c0-4.398437 0-11.597656 0-16v-8c0-4.398437 0-11.597656 0-16v-8c0-4.398437 0-11.597656 0-16v-8.078125c0-4.398438 0-11.601562 0-16v-13.359375c0-4.402344-3.601563-8-8-8zm0 0" fill="#e6e9ed"/><path d="m168 80.007812c-13.230469 0-24-10.769531-24-24 0-13.230468 10.769531-24 24-24s24 10.769532 24 24c0 13.230469-10.769531 24-24 24zm0-32c-4.414062 0-8 3.585938-8 8 0 4.417969 3.585938 8 8 8s8-3.582031 8-8c0-4.414062-3.585938-8-8-8zm0 0" fill="#f5f7fa"/><path d="m155.984375 92h24v8h-24zm0 0" fill="#ccd1d9"/><path d="m155.984375 116.015625h24v8h-24zm0 0" fill="#ccd1d9"/><path d="m155.984375 140.03125h24v8h-24zm0 0" fill="#ccd1d9"/><path d="m155.984375 164.046875h24v8h-24zm0 0" fill="#ccd1d9"/><path d="m155.984375 188.0625h24v8h-24zm0 0" fill="#ccd1d9"/><path d="m223.992188 32.007812c4.421874 0 8 3.578126 8 8v191.839844c0 4.425782-3.578126 8-8 8-4.425782 0-8-3.574218-8-8v-191.839844c0-4.421874 3.574218-8 8-8zm0 0" fill="#ccd1d9"/><path d="m228.007812 381.375c4.398438 0 8-3.597656 8-8v-13.359375c0-4.398437 0-11.601563 0-16v-8.078125c0-4.402344 0-11.601562 0-16v-8c0-4.402344 0-11.601562 0-16v-8c0-4.402344 0-11.601562 0-16v-8c0-4.402344 0-11.601562 0-16v-8.082031c0-4.398438-3.601562-8-8-8h-8c-4.398437 0-8 3.601562-8 8v8.082031 16 8 16 8 16 8 16 8.078125 16 13.359375c0 4.402344 3.601563 8 8 8zm0 0" fill="#e6e9ed"/><path d="m223.992188 368.007812c13.230468 0 24 10.769532 24 24 0 13.230469-10.769532 24-24 24-13.230469 0-24-10.769531-24-24 0-13.230468 10.769531-24 24-24zm0 32c4.414062 0 8-3.582031 8-8 0-4.414062-3.585938-8-8-8-4.417969 0-8 3.585938-8 8 0 4.417969 3.582031 8 8 8zm0 0" fill="#f5f7fa"/><path d="m212.007812 348.015625h24v8h-24zm0 0" fill="#ccd1d9"/><path d="m212.007812 324h24v8h-24zm0 0" fill="#ccd1d9"/><path d="m212.007812 299.984375h24v8h-24zm0 0" fill="#ccd1d9"/><path d="m212.007812 275.96875h24v8h-24zm0 0" fill="#ccd1d9"/><path d="m212.007812 251.953125h24v8h-24zm0 0" fill="#ccd1d9"/><path d="m280.007812 416.007812c-4.421874 0-8-3.574218-8-8v-191.839843c0-4.425781 3.578126-8 8-8 4.425782 0 8 3.574219 8 8v191.839843c0 4.425782-3.574218 8-8 8zm0 0" fill="#ccd1d9"/><path d="m275.992188 66.640625c-4.398438 0-8 3.597656-8 8v13.359375 16 8.078125 16 8 16 8 16 8 16 8.082031c0 4.398438 3.601562 8 8 8h8c4.398437 0 8-3.601562 8-8v-8.082031c0-4.398437 0-11.597656 0-16v-8c0-4.398437 0-11.597656 0-16v-8c0-4.398437 0-11.597656 0-16v-8c0-4.398437 0-11.597656 0-16v-8.078125c0-4.398438 0-11.601562 0-16v-13.359375c0-4.402344-3.601563-8-8-8zm0 0" fill="#e6e9ed"/><path d="m280.007812 80.007812c-13.230468 0-24-10.769531-24-24 0-13.230468 10.769532-24 24-24 13.230469 0 24 10.769532 24 24 0 13.230469-10.769531 24-24 24zm0-32c-4.414062 0-8 3.585938-8 8 0 4.417969 3.585938 8 8 8 4.417969 0 8-3.582031 8-8 0-4.414062-3.582031-8-8-8zm0 0" fill="#f5f7fa"/><path d="m267.992188 92h24v8h-24zm0 0" fill="#ccd1d9"/><path d="m267.992188 116.015625h24v8h-24zm0 0" fill="#ccd1d9"/><path d="m267.992188 140.03125h24v8h-24zm0 0" fill="#ccd1d9"/><path d="m267.992188 164.046875h24v8h-24zm0 0" fill="#ccd1d9"/><path d="m267.992188 188.0625h24v8h-24zm0 0" fill="#ccd1d9"/></svg>