<svg id="color_line" height="512" viewBox="0 0 74 74" width="512" xmlns="http://www.w3.org/2000/svg" data-name="color line"><path d="m50.01 8.989-7.966 9.133-19.489-5.538v-8.584h24.845a3.176 3.176 0 0 1 2.61 4.989z" fill="#eeefee"/><path d="m50.01 8.99-7.97 9.13-2.82-.8 7.31-8.38a3.171 3.171 0 0 0 -2.06-4.94h2.93a3.177 3.177 0 0 1 2.61 4.99z" fill="#e1e6e9"/><path d="m17.446 5.554v5.475a1.554 1.554 0 0 0 1.554 1.555h3.555v-8.584h-3.555a1.554 1.554 0 0 0 -1.554 1.554z" fill="#bbbbcd"/><path d="m22.555 13.083h-3.555a2.056 2.056 0 0 1 -2.054-2.054v-5.475a2.056 2.056 0 0 1 2.054-2.054h3.555a.5.5 0 0 1 .5.5v8.583a.5.5 0 0 1 -.5.5zm-3.555-8.583a1.056 1.056 0 0 0 -1.054 1.054v5.475a1.056 1.056 0 0 0 1.054 1.054h3.055v-7.583z" fill="#323c6b"/><path d="m32.184 22.542h13.632a2.3 2.3 0 0 1 2.3 2.3v6.722a0 0 0 0 1 0 0h-18.231a0 0 0 0 1 0 0v-6.724a2.3 2.3 0 0 1 2.299-2.298z" fill="#9297ab"/><path d="m48.115 32.062h-18.23a.5.5 0 0 1 -.5-.5v-6.722a2.8 2.8 0 0 1 2.8-2.8h13.631a2.8 2.8 0 0 1 2.8 2.8v6.722a.5.5 0 0 1 -.501.5zm-17.729-1h17.229v-6.222a1.8 1.8 0 0 0 -1.8-1.8h-13.631a1.8 1.8 0 0 0 -1.8 1.8z" fill="#323c6b"/><path d="m33.094 29.2a.5.5 0 0 1 -.5-.5v-3.294a.5.5 0 0 1 1 0v3.294a.5.5 0 0 1 -.5.5z" fill="#323c6b"/><path d="m36.047 29.2a.5.5 0 0 1 -.5-.5v-3.294a.5.5 0 0 1 1 0v3.294a.5.5 0 0 1 -.5.5z" fill="#323c6b"/><path d="m41.953 29.2a.5.5 0 0 1 -.5-.5v-3.294a.5.5 0 0 1 1 0v3.294a.5.5 0 0 1 -.5.5z" fill="#323c6b"/><path d="m39 29.2a.5.5 0 0 1 -.5-.5v-3.294a.5.5 0 0 1 1 0v3.294a.5.5 0 0 1 -.5.5z" fill="#323c6b"/><path d="m44.906 29.2a.5.5 0 0 1 -.5-.5v-3.294a.5.5 0 0 1 1 0v3.294a.5.5 0 0 1 -.5.5z" fill="#323c6b"/><path d="m27.012 72h23.976a4.794 4.794 0 0 0 3.1-1.128 23.346 23.346 0 0 0 -5.973-39.31h-18.23a23.346 23.346 0 0 0 -5.973 39.31 4.794 4.794 0 0 0 3.1 1.128z" fill="#eeefee"/><path d="m62.35 53.08a23.246 23.246 0 0 1 -8.26 17.79 4.829 4.829 0 0 1 -3.1 1.13h-3.36a4.828 4.828 0 0 0 3.1-1.13 23.346 23.346 0 0 0 -5.97-39.31h3.35a23.317 23.317 0 0 1 14.24 21.52z" fill="#e1e6e9"/><path d="m58.35 53.08a19.307 19.307 0 0 1 -6.85 14.74.757.757 0 0 1 -.51.18h-23.98a.757.757 0 0 1 -.51-.18 19.318 19.318 0 0 1 -6.32-19.25 26.114 26.114 0 0 1 12.8 2.81c.74.37 1.46.76 2.23 1.06a23.369 23.369 0 0 0 15.87.25 51.118 51.118 0 0 0 6.95-3.14 19.644 19.644 0 0 1 .32 3.53z" fill="#89c5cd"/><path d="m58.35 53.08a19.307 19.307 0 0 1 -6.85 14.74.757.757 0 0 1 -.51.18h-23.98a.757.757 0 0 1 -.51-.18 19.3 19.3 0 0 1 -3.32-3.63q.63.645 1.32 1.23a.757.757 0 0 0 .51.18h23.98a.757.757 0 0 0 .51-.18 19.307 19.307 0 0 0 6.85-14.74 2.1 2.1 0 0 0 -.01-.25c.57-.27 1.13-.57 1.69-.88a19.644 19.644 0 0 1 .32 3.53z" fill="#6eaaad"/><path d="m26.714 13.761c-.308 2.231-1.951 7.114-10.214 10.1 11.7 0 15.283-6.526 16.067-8.43z" fill="#9297ab"/><g fill="#323c6b"><path d="m16.5 24.363a.5.5 0 0 1 -.17-.97c8.121-2.937 9.621-7.762 9.888-9.7a.5.5 0 0 1 .632-.413l5.854 1.671a.5.5 0 0 1 .325.671c-.843 2.051-4.529 8.741-16.529 8.741zm10.61-9.968c-.437 2.1-2.039 5.977-7.834 8.836 8.4-.833 11.573-5.379 12.6-7.476z"/><path d="m52.893 10.5a.5.5 0 0 1 -.444-.729 5.673 5.673 0 0 0 -.016-5.224 5.6 5.6 0 0 0 -2.407-2.4.5.5 0 0 1 .459-.889 6.6 6.6 0 0 1 2.834 2.822 6.673 6.673 0 0 1 .019 6.146.5.5 0 0 1 -.445.274z"/><path d="m51.039 12.873a.5.5 0 0 1 -.377-.829l.433-.5a.5.5 0 0 1 .754.657l-.433.5a.5.5 0 0 1 -.377.172z"/><path d="m15.87 66.125a.5.5 0 0 1 -.44-.261 26.748 26.748 0 0 1 -3.115-9.935.5.5 0 0 1 .994-.107 25.75 25.75 0 0 0 3 9.565.5.5 0 0 1 -.439.739z"/><path d="m12.656 53.5a.5.5 0 0 1 -.5-.5c0-.343.019-.683.037-1.022l.013-.252a.5.5 0 1 1 1 .051l-.014.255c-.017.323-.035.646-.036.971a.5.5 0 0 1 -.5.497z"/><path d="m12.293 5.237a.507.507 0 0 1 -.153-.024l-4.88-1.574a.5.5 0 0 1 .307-.952l4.88 1.575a.5.5 0 0 1 -.153.976z"/><path d="m7.413 13.921a.5.5 0 0 1 -.153-.976l4.88-1.575a.5.5 0 1 1 .307.952l-4.881 1.578a.507.507 0 0 1 -.153.021z"/><path d="m10.5 8.792h-6.833a.5.5 0 0 1 0-1h6.833a.5.5 0 0 1 0 1z"/><path d="m42.043 18.622a.507.507 0 0 1 -.137-.019l-19.488-5.539a.5.5 0 0 1 -.363-.481v-8.583a.5.5 0 0 1 .5-.5h24.845a3.676 3.676 0 0 1 3.019 5.774c-.011.015-.022.03-.034.043l-7.965 9.134a.5.5 0 0 1 -.377.171zm-18.988-6.416 18.82 5.349 7.74-8.873a2.676 2.676 0 0 0 -2.215-4.182h-24.345z"/></g><path d="m42.044 15.941v6.6h-6.087v-6.6a3.044 3.044 0 0 1 3.043-3.041 3.044 3.044 0 0 1 3.044 3.041z" fill="#bbbbcd"/><path d="m42.043 23.045h-6.086a.5.5 0 0 1 -.5-.5v-6.6a3.543 3.543 0 0 1 7.087 0v6.6a.5.5 0 0 1 -.501.5zm-5.587-1h5.087v-6.1a2.543 2.543 0 0 0 -5.087 0z" fill="#323c6b"/><path d="m50.988 72.5h-23.976a5.3 5.3 0 0 1 -3.423-1.247 23.846 23.846 0 0 1 6.1-40.152.492.492 0 0 1 .194-.04h18.232a.492.492 0 0 1 .194.04 23.846 23.846 0 0 1 6.1 40.152 5.3 5.3 0 0 1 -3.421 1.247zm-21-40.438a22.846 22.846 0 0 0 -5.752 38.429 4.3 4.3 0 0 0 2.776 1.009h23.976a4.3 4.3 0 0 0 2.777-1.009 22.846 22.846 0 0 0 -5.752-38.429z" fill="#323c6b"/><path d="m50.99 68.5h-23.98a1.257 1.257 0 0 1 -.849-.313 19.813 19.813 0 0 1 -6.466-19.734.5.5 0 0 1 .469-.382 26.779 26.779 0 0 1 13.042 2.863l.456.231a19.066 19.066 0 0 0 1.73.81 22.99 22.99 0 0 0 15.54.238 50.325 50.325 0 0 0 6.855-3.1.5.5 0 0 1 .735.347 20.2 20.2 0 0 1 .328 3.62 19.806 19.806 0 0 1 -7.027 15.12 1.245 1.245 0 0 1 -.833.3zm-30.409-19.44a18.821 18.821 0 0 0 6.243 18.379.274.274 0 0 0 .187.062h23.979a.274.274 0 0 0 .17-.047 18.823 18.823 0 0 0 6.69-14.374 19.22 19.22 0 0 0 -.2-2.754 53.079 53.079 0 0 1 -6.4 2.833 23.983 23.983 0 0 1 -16.228-.253c-.634-.247-1.236-.553-1.819-.85l-.452-.229a25.652 25.652 0 0 0 -12.17-2.767z" fill="#323c6b"/><path d="m39.614 57.782a.67.67 0 0 1 -.093-.006q-.479-.069-.956-.159a.65.65 0 1 1 .241-1.277q.448.084.9.149a.65.65 0 0 1 -.091 1.293z" fill="#fff"/><path d="m35.763 56.863a.655.655 0 0 1 -.208-.034q-.524-.177-1.042-.38c-.64-.249-1.247-.558-1.833-.855l-.451-.228a26.059 26.059 0 0 0 -4.214-1.686.65.65 0 1 1 .374-1.245 27.411 27.411 0 0 1 4.424 1.765l.457.231a18.932 18.932 0 0 0 1.716.8c.328.128.655.248.984.358a.65.65 0 0 1 -.208 1.267z" fill="#fff"/></svg>