<svg height="512pt" viewBox="-59 0 512 512.001" width="512pt" xmlns="http://www.w3.org/2000/svg"><path d="m116.855469 61.382812h159.859375v78.636719h-159.859375zm0 0" fill="#efe2dd"/><path d="m386.070312 215.117188c0-60.019532-48.65625-99.660157-108.675781-99.660157h-161.21875c-60.019531 0-108.675781 39.640625-108.675781 99.660157v253.820312c0 19.640625 15.921875 35.5625 35.5625 35.5625h307.445312c19.640626 0 35.5625-15.921875 35.5625-35.5625zm0 0" fill="#fff5f5"/><path d="m277.394531 115.453125h-31.804687c60.019531 0 108.675781 39.644531 108.675781 99.664063v253.820312c0 19.640625-15.921875 35.5625-35.5625 35.5625h31.804687c19.640626 0 35.5625-15.921875 35.5625-35.5625v-253.820312c0-60.019532-48.65625-99.664063-108.675781-99.664063zm0 0" fill="#efe2dd"/><path d="m350.507812 471.417969h-307.445312c-18.253906 0-33.296875-13.753907-35.328125-31.46875h-.234375v28.988281c0 19.640625 15.921875 35.5625 35.5625 35.5625h307.445312c19.640626 0 35.5625-15.921875 35.5625-35.5625v-28.988281h-.230468c-2.03125 17.714843-17.074219 31.46875-35.332032 31.46875zm0 0" fill="#efe2dd"/><path d="m354.195312 471.230469c-1.183593 18.570312-16.621093 33.269531-35.492187 33.269531h31.804687c19.640626 0 35.5625-15.921875 35.5625-35.5625v-28.988281h-.230468c-1.894532 16.503906-15.085938 29.574219-31.644532 31.28125zm0 0" fill="#e1d3ce"/><path d="m298.339844 78.773438h-203.105469c-9.933594 0-17.984375-8.050782-17.984375-17.980469v-35.3125c0-9.929688 8.050781-17.980469 17.984375-17.980469h203.105469c9.929687 0 17.980468 8.050781 17.980468 17.980469v35.3125c0 9.929687-8.050781 17.980469-17.980468 17.980469zm0 0" fill="#ff646f"/><path d="m298.339844 7.5h-31.804688c9.929688 0 17.980469 8.050781 17.980469 17.980469v53.292969h13.824219c9.929687 0 17.980468-8.050782 17.980468-17.980469v-35.3125c0-9.929688-8.050781-17.980469-17.980468-17.980469zm0 0" fill="#ff4755"/><path d="m150.011719 424.621094c0 25.839844-20.949219 46.785156-46.789063 46.785156-25.835937 0-46.785156-20.945312-46.785156-46.785156s20.949219-46.785156 46.785156-46.785156c25.839844 0 46.789063 20.945312 46.789063 46.785156zm0 0" fill="#cc98e8"/><path d="m103.222656 377.835938c-5.582031 0-10.9375.976562-15.898437 2.769531 18.007812 6.511719 30.882812 23.757812 30.882812 44.015625 0 20.253906-12.875 37.503906-30.882812 44.011718 4.960937 1.792969 10.316406 2.773438 15.898437 2.773438 25.839844 0 46.789063-20.945312 46.789063-46.785156s-20.949219-46.785156-46.789063-46.785156zm0 0" fill="#bf80e2"/><path d="m196.761719 343.566406c0 25.839844-20.945313 46.785156-46.785157 46.785156-25.839843 0-46.785156-20.945312-46.785156-46.785156s20.945313-46.785156 46.785156-46.785156c25.839844 0 46.785157 20.945312 46.785157 46.785156zm0 0" fill="#ff646f"/><path d="m149.976562 296.78125c-5.582031 0-10.9375.980469-15.902343 2.773438 18.011719 6.507812 30.886719 23.757812 30.886719 44.011718 0 20.257813-12.875 37.503906-30.886719 44.011719 4.964843 1.796875 10.320312 2.773437 15.902343 2.773437 25.839844 0 46.785157-20.945312 46.785157-46.785156s-20.945313-46.785156-46.785157-46.785156zm0 0" fill="#ff4755"/><path d="m243.550781 424.621094c0 25.839844-20.949219 46.785156-46.789062 46.785156-25.835938 0-46.785157-20.945312-46.785157-46.785156s20.949219-46.785156 46.785157-46.785156c25.839843 0 46.789062 20.945312 46.789062 46.785156zm0 0" fill="#ffaa5c"/><path d="m196.761719 377.835938c-5.582031 0-10.9375.976562-15.898438 2.769531 18.007813 6.511719 30.882813 23.757812 30.882813 44.015625 0 20.253906-12.875 37.503906-30.882813 44.011718 4.960938 1.792969 10.316407 2.773438 15.898438 2.773438 25.839843 0 46.789062-20.945312 46.789062-46.785156s-20.949219-46.785156-46.789062-46.785156zm0 0" fill="#ff9838"/><path d="m290.347656 343.566406c0 25.839844-20.949218 46.785156-46.789062 46.785156-25.835938 0-46.785156-20.945312-46.785156-46.785156s20.949218-46.785156 46.785156-46.785156c25.839844 0 46.789062 20.945312 46.789062 46.785156zm0 0" fill="#cc98e8"/><path d="m243.558594 296.78125c-5.566406 0-10.90625.972656-15.859375 2.757812 18.035156 6.496094 30.925781 23.757813 30.925781 44.027344 0 20.273438-12.890625 37.53125-30.925781 44.027344 4.953125 1.785156 10.292969 2.757812 15.859375 2.757812 25.839844 0 46.789062-20.945312 46.789062-46.785156s-20.949218-46.785156-46.789062-46.785156zm0 0" fill="#bf80e2"/><path d="m337.132812 424.621094c0 25.839844-20.945312 46.785156-46.785156 46.785156s-46.789062-20.945312-46.789062-46.785156 20.949218-46.785156 46.789062-46.785156 46.785156 20.945312 46.785156 46.785156zm0 0" fill="#ff646f"/><path d="m290.347656 377.835938c-5.632812 0-11.027344.992187-16.027344 2.816406 17.945313 6.542968 30.757813 23.757812 30.757813 43.96875 0 20.207031-12.8125 37.425781-30.757813 43.96875 5 1.820312 10.394532 2.816406 16.027344 2.816406 25.835938 0 46.785156-20.945312 46.785156-46.785156s-20.949218-46.785156-46.785156-46.785156zm0 0" fill="#ff4755"/><path d="m243.550781 262.519531c0 25.835938-20.949219 46.785157-46.789062 46.785157-25.835938 0-46.785157-20.949219-46.785157-46.785157 0-25.839843 20.949219-46.789062 46.785157-46.789062 25.839843 0 46.789062 20.949219 46.789062 46.789062zm0 0" fill="#fff58c"/><path d="m196.761719 215.730469c-5.597657 0-10.964844.984375-15.941407 2.789062 17.988282 6.519531 30.839844 23.757813 30.839844 44 0 20.238281-12.851562 37.476563-30.839844 43.996094 4.976563 1.804687 10.34375 2.789063 15.941407 2.789063 25.839843 0 46.789062-20.949219 46.789062-46.785157 0-25.839843-20.949219-46.789062-46.789062-46.789062zm0 0" fill="#ffea00"/><path d="m125.03125 54.332031v-21.0625c0-9.914062-15-9.929687-15 0v21.0625c0 9.914063 15 9.929688 15 0zm0 0"/><path d="m164.65625 54.332031v-21.0625c0-9.914062-15-9.929687-15 0v21.0625c0 9.914063 15 9.929688 15 0zm0 0"/><path d="m204.285156 54.332031v-21.0625c0-9.914062-15-9.929687-15 0v21.0625c0 9.914063 15 9.929688 15 0zm0 0"/><path d="m243.914062 54.332031v-21.0625c0-9.914062-15-9.929687-15 0v21.0625c0 9.914063 15 9.929688 15 0zm0 0"/><path d="m283.542969 54.332031v-21.0625c0-9.914062-15-9.929687-15 0v21.0625c0 9.914063 15 9.929688 15 0zm0 0"/><path d="m378.570312 244.980469c-.0625 84.9375.167969 191.050781-.183593 194.113281-1.625 14.152344-13.609375 24.824219-27.878907 24.824219h-22.75c10.390626-9.894531 16.875-23.855469 16.875-39.300781 0-29.789063-24.121093-54.050782-53.859374-54.28125 4.5-7.90625 7.070312-17.042969 7.070312-26.769532 0-29.792968-24.125-54.058594-53.863281-54.285156 4.496093-7.902344 7.066406-17.039062 7.066406-26.761719 0-29.933593-24.351563-54.285156-54.285156-54.285156-29.933594 0-54.285157 24.351563-54.285157 54.285156 0 9.722657 2.570313 18.859375 7.070313 26.765625-29.738281.230469-53.855469 24.492188-53.855469 54.28125 0 9.726563 2.570313 18.867188 7.070313 26.769532-29.722657.25-53.824219 24.503906-53.824219 54.285156 0 15.445312 6.484375 29.402344 16.871094 39.300781h-22.746094c-14.269531 0-26.257812-10.675781-27.878906-24.824219-.3125-2.730468-.128906-20.667968-.183594-33.34375 0-9.914062-15-9.929687-15 0v34.179688.015625.019531 28.96875c0 23.746094 19.320312 43.0625 43.0625 43.0625h307.445312c23.746094 0 43.0625-19.316406 43.0625-43.0625v-223.957031c0-9.914063-15-9.929688-15 0zm-181.808593 140.355469c21.664062 0 39.289062 17.621093 39.289062 39.285156 0 21.660156-17.625 39.285156-39.289062 39.285156-21.46875 0-39.25-17.382812-39.25-39.285156s17.777343-39.285156 39.25-39.285156zm46.792969 66.78125c2.574218 4.359374 5.734374 8.332031 9.378906 11.800781h-18.757813c3.644531-3.46875 6.808594-7.441407 9.378907-11.800781zm86.078124-27.496094c0 21.660156-17.625 39.285156-39.285156 39.285156-21.664062 0-39.285156-17.625-39.285156-39.285156 0-21.664063 17.621094-39.285156 39.285156-39.285156 21.660156 0 39.285156 17.621093 39.285156 39.285156zm-46.785156-81.054688c0 21.660156-17.625 39.285156-39.285156 39.285156-21.664062 0-39.285156-17.625-39.285156-39.285156 0-21.664062 17.621094-39.285156 39.285156-39.285156 21.660156 0 39.285156 17.621094 39.285156 39.285156zm-86.085937-120.335937c21.664062 0 39.289062 17.625 39.289062 39.285156 0 21.664063-17.625 39.289063-39.289062 39.289063-21.660157 0-39.285157-17.625-39.285157-39.289063 0-21.660156 17.625-39.285156 39.285157-39.285156zm-46.785157 81.050781c21.664063 0 39.289063 17.621094 39.289063 39.285156 0 21.660156-17.625 39.285156-39.289063 39.285156-21.660156 0-39.285156-17.625-39.285156-39.285156 0-21.664062 17.625-39.285156 39.285156-39.285156zm-86.035156 120.339844c0-21.664063 17.621094-39.285156 39.285156-39.285156 21.46875 0 39.25 17.378906 39.25 39.285156 0 21.902344-17.78125 39.285156-39.25 39.285156-21.664062 0-39.285156-17.625-39.285156-39.285156zm86.054688 27.535156c2.566406 4.34375 5.722656 8.304688 9.355468 11.761719h-18.714843c3.636719-3.457031 6.789062-7.417969 9.359375-11.761719zm200.511718 44.84375h-307.445312c-15.472656 0-28.0625-12.589844-28.0625-28.0625v-.398438c7.570312 6.492188 17.402344 10.378907 28.0625 10.378907h307.445312c10.664063 0 20.492188-3.882813 28.0625-10.378907v.398438c0 15.472656-12.585937 28.0625-28.0625 28.0625zm0 0"/><path d="m15 375.453125v-160.335937c0-53.402344 42.550781-92.164063 101.175781-92.164063h161.21875c58.625 0 101.175781 38.761719 101.175781 92.164063 0 9.914062 15 9.929687 15 0 0-30.652344-12.199218-58.335938-34.355468-77.953126-19.730469-17.46875-46.152344-27.65625-75-29.046874v-21.84375h14.125c14.050781 0 25.480468-11.429688 25.480468-25.480469v-35.3125c0-14.046875-11.429687-25.480469-25.480468-25.480469h-203.105469c-14.054687 0-25.484375 11.433594-25.484375 25.480469v35.3125c0 14.050781 11.429688 25.480469 25.484375 25.480469h14.121094v21.84375c-28.847657 1.390624-55.269531 11.578124-74.996094 29.046874-22.15625 19.617188-34.359375 47.300782-34.359375 77.953126v160.335937c0 9.914063 15 9.929687 15 0zm69.75-314.660156v-35.3125c0-5.777344 4.703125-10.480469 10.484375-10.480469h203.105469c5.777344 0 10.480468 4.703125 10.480468 10.480469v35.3125c0 5.78125-4.703124 10.480469-10.480468 10.480469h-203.105469c-5.78125 0-10.484375-4.699219-10.484375-10.480469zm184.464844 25.480469v21.679687h-144.859375v-21.679687zm0 0"/></svg>