<?xml version="1.0"?>
<svg xmlns="http://www.w3.org/2000/svg" viewBox="0 0 512 512" width="512" height="512"><g id="Filled_outline" data-name="Filled outline"><path d="M424,414.16V488H88V414.16A447.379,447.379,0,0,1,120,248H392a447.656,447.656,0,0,1,23.93,81.55A448.043,448.043,0,0,1,424,414.16Z" style="fill:#d6d6d4"/><path d="M424,414.16V488H202.96c64.92-47.57,130.68-122.67,163.26-240H392a447.656,447.656,0,0,1,23.93,81.55A448.043,448.043,0,0,1,424,414.16Z" style="fill:#c7c7c5"/><ellipse cx="256" cy="248" rx="136" ry="40" style="fill:#4db7e5"/><ellipse cx="260" cy="264" rx="108" ry="24" style="fill:#3b9dc7"/><circle cx="268" cy="388" r="44" style="fill:#c7c7c5"/><circle cx="256" cy="376" r="40" style="fill:#e0e0de"/><rect x="112" y="88" width="232" height="48" rx="24" ry="24" style="fill:#e0e0de"/><path d="M193.6,123.1a20,20,0,0,0-19.9-22.062h-46.53a163.936,163.936,0,0,1-14.75,15.159A23.964,23.964,0,0,0,136,136h50.571A19.222,19.222,0,0,0,193.6,123.1Z" style="fill:#d6d6d4"/><path d="M152,88h32V76.976a32,32,0,0,0-9.037-22.287l-25.7-26.481a19.2,19.2,0,0,0-12-4.208H94.951A19.2,19.2,0,0,0,82.66,28.45L40,64H24v64H40a77.748,77.748,0,0,0,80,0h42.86c10.461,0,19.994-7.528,21.036-17.938A20,20,0,0,0,164,88H104l24-24Z" style="fill:#fec9a3"/><path d="M224,88v64a16,16,0,0,0,16,16h0a16,16,0,0,0,16-16h0v72a16,16,0,0,0,16,16h0a16,16,0,0,0,16-16V88Z" style="fill:#f59898"/><path d="M117.471,88C98.208,110.588,75,125.157,54.3,134.521A77.611,77.611,0,0,0,120,128h42.859c10.462,0,20-7.528,21.037-17.938A20,20,0,0,0,164,88H117.471Z" style="fill:#fec093"/><rect x="288" y="88" width="16" height="48" style="fill:#d6d6d4"/><path d="M399.716,245.8c-2.987-27.949-61.194-38.8-86.661-42.183l-2.11,15.86C361.336,226.18,384,240.188,384,248c0,2.954-3.167,6.587-9.25,10.33-5.434-12-28.886-20.138-69.961-24.213l-1.578,15.922c35.562,3.531,52.258,10.406,56.211,13.984a21.992,21.992,0,0,1-6.408,3.662c-21.215,6.747-53.156,12.15-95.387,12.29-55.832-.271-90.741-9.859-97.057-15.952,4.618-4.234,26.282-12.507,71.907-15.226l-.954-15.969c-31.708,1.887-84.1,8.231-87.224,29.229-10.732-5-16.3-10.126-16.3-14.057,0-10.594,37.188-27.875,104.414-31.383l-.828-15.984c-53.757,2.809-116.13,16.356-119.285,45.123A454.116,454.116,0,0,0,80,414.156V488a8,8,0,0,0,8,8H424a8,8,0,0,0,8-8V414.156a456.653,456.653,0,0,0-8.219-86.07A456.874,456.874,0,0,0,399.716,245.8ZM121.694,266.374C143.64,285.862,200.005,296,256,296c.353,0,.7-.014,1.057-.015C258.3,296,259.32,296,260,296c8.743,0,67.453-.5,97.835-13.172,13.87-4.4,25.093-9.9,32.474-16.457a440.7,440.7,0,0,1,17.753,64.746A440.164,440.164,0,0,1,416,414.156V440H96V414.156A437.721,437.721,0,0,1,121.694,266.374ZM96,480V456H416v24Z"/><path d="M208,376a48,48,0,1,0,48-48A48.052,48.052,0,0,0,208,376Zm40-30.864V360h16V345.136a32,32,0,1,1-16,0Z"/><path d="M205.7,336.438l-12.562-9.907a80.271,80.271,0,0,0-9.375,15.071l14.437,6.89A63.839,63.839,0,0,1,205.7,336.438Z"/><path d="M227.586,318.625,220.461,304.3a80.385,80.385,0,0,0-14.906,9.609l10.093,12.406A64.4,64.4,0,0,1,227.586,318.625Z"/><path d="M193.562,361.891l-15.609-3.516A80.324,80.324,0,0,0,176,376h16A64.168,64.168,0,0,1,193.562,361.891Z"/><path d="M317.969,359.93l15.484-4.032a80.342,80.342,0,0,0-6.336-16.562L312.9,346.664A64.326,64.326,0,0,1,317.969,359.93Z"/><path d="M320,376a64.622,64.622,0,0,1-1.148,12.141l15.718,3A81.287,81.287,0,0,0,336,376l-.039-2.539-16,.5Z"/><path d="M254.984,312.016l-.25-16a80.373,80.373,0,0,0-17.586,2.226l3.75,15.547A64.418,64.418,0,0,1,254.984,312.016Z"/><path d="M305.031,334.852l12.25-10.282a79.867,79.867,0,0,0-12.82-12.234l-9.7,12.719A64.549,64.549,0,0,1,305.031,334.852Z"/><path d="M289.25,303.219a79.8,79.8,0,0,0-16.875-5.539l-3.25,15.672a63.022,63.022,0,0,1,13.469,4.414Z"/><path d="M307.531,413.953l12.875,9.5a80.222,80.222,0,0,0,8.891-15.367l-14.656-6.422A63.732,63.732,0,0,1,307.531,413.953Z"/><path d="M188,416a12,12,0,1,0-12-12A12.013,12.013,0,0,0,188,416Z"/><path d="M117.642,138.178A31.793,31.793,0,0,0,136,144h80v8a24.013,24.013,0,0,0,32,22.633V224a24,24,0,0,0,48,0V144h24a32,32,0,0,0,0-64H192V76.977a39.8,39.8,0,0,0-11.3-27.86L155,22.641a8.443,8.443,0,0,0-.734-.672,27.241,27.241,0,0,0-17-5.969H94.953a27.328,27.328,0,0,0-17.422,6.305L37.1,56H24V72H40a8.01,8.01,0,0,0,5.125-1.852L87.773,34.6a11.23,11.23,0,0,1,7.18-2.6h42.313a11.217,11.217,0,0,1,6.648,2.188l25.305,26.07A23.854,23.854,0,0,1,176,76.977V80H155.312L133.656,58.344a8,8,0,0,0-11.312,0l-24,24A8,8,0,0,0,104,96h60a12.013,12.013,0,0,1,11.938,13.266c-.6,6.015-6.352,10.734-13.079,10.734H120a7.955,7.955,0,0,0-4.117,1.141,69.614,69.614,0,0,1-71.766,0A7.955,7.955,0,0,0,40,120H24v16H37.844a84.712,84.712,0,0,0,79.8,2.178ZM123.312,80,128,75.312,132.688,80ZM336,112a16.03,16.03,0,0,1-16,16H296V96h24A16.021,16.021,0,0,1,336,112ZM280,96V224a8,8,0,0,1-16,0V152a8,8,0,0,0-16,0,8,8,0,0,1-16,0V96Zm-64,0v32H183.086a27.174,27.174,0,0,0,8.773-17.141A28.086,28.086,0,0,0,189.209,96Z"/></g></svg>
