<svg id="Layer_3" enable-background="new 0 0 64 64" height="512" viewBox="0 0 64 64" width="512" xmlns="http://www.w3.org/2000/svg"><g><path d="m57 25.99c-.845-.039-1.741-.236-2.643-.582-1.351-.519-2.861.22-3.323 1.591-2.009 5.961-3.034 12.209-3.034 18.499 0 5.638.823 11.245 2.443 16.645l.257.858h-37.4l.257-.858c1.62-5.4 2.443-11.007 2.443-16.645 0-6.29-1.025-12.538-3.033-18.499-.462-1.371-1.972-2.11-3.323-1.591-.903.346-1.799.543-2.644.582l-4.981-5.201c.162-2.166 1.339-4.633 3.387-6.681 2.691-2.691 6.101-3.871 8.606-3.229.066-2.704 2.268-4.879 4.988-4.879 1.024 0 1.975.31 2.768.839.976-.584 2.005-1.088 3.078-1.503.693-.268 1.285-.745 1.641-1.397l.143-.261c.243-.445.37-.943.37-1.449v-1.229h10v1.233c0 .504.126.999.367 1.441l.142.26c.356.653.948 1.131 1.641 1.4 1.075.416 2.105.921 3.082 1.505.793-.529 1.744-.839 2.768-.839 2.72 0 4.922 2.175 4.988 4.879 2.504-.643 5.915.538 8.606 3.229 2.048 2.048 3.225 4.515 3.387 6.681z" fill="#fadfb2"/><g><path d="m25 11h-2c0-.844-.26-1.65-.751-2.333l1.624-1.167c.737 1.023 1.127 2.234 1.127 3.5z" fill="#efbe9a"/></g><g><path d="m40.999 11h-2c0-1.332.428-2.593 1.236-3.647l1.587 1.217c-.538.701-.823 1.542-.823 2.43z" fill="#efbe9a"/></g><path d="m36.5 18h-1.5v-2h-6v2h-1.5c-.828 0-1.5.672-1.5 1.5 0 .828.672 1.5 1.5 1.5h1.5v2h6v-2h1.5c.828 0 1.5-.672 1.5-1.5 0-.828-.672-1.5-1.5-1.5z" fill="#c1c8d1"/><g><path d="m36.5 25h-1.5v-2h-6v2h-1.5c-.828 0-1.5.672-1.5 1.5 0 .828.672 1.5 1.5 1.5h1.5v2h6v-2h1.5c.828 0 1.5-.672 1.5-1.5 0-.828-.672-1.5-1.5-1.5z" fill="#a8b0bc"/></g><g><path d="m36.5 32h-1.5v-2h-6v2h-1.5c-.828 0-1.5.672-1.5 1.5 0 .828.672 1.5 1.5 1.5h1.5v2h6v-2h1.5c.828 0 1.5-.672 1.5-1.5 0-.828-.672-1.5-1.5-1.5z" fill="#c1c8d1"/></g><path d="m36.5 39h-1.5v-2h-6v2h-1.5c-.828 0-1.5.672-1.5 1.5 0 .828.672 1.5 1.5 1.5h1.5v2h6v-2h1.5c.828 0 1.5-.672 1.5-1.5 0-.828-.672-1.5-1.5-1.5z" fill="#a8b0bc"/><path d="m36.5 46h-1.5v-2h-6v2h-1.5c-.828 0-1.5.672-1.5 1.5 0 .828.672 1.5 1.5 1.5h1.5v2h6v-2h1.5c.828 0 1.5-.672 1.5-1.5 0-.828-.672-1.5-1.5-1.5z" fill="#c1c8d1"/><path d="m36.5 53h-1.5v-2h-6v2h-1.5c-.828 0-1.5.672-1.5 1.5 0 .828.672 1.5 1.5 1.5h1.5v2h6v-2h1.5c.828 0 1.5-.672 1.5-1.5 0-.828-.672-1.5-1.5-1.5z" fill="#a8b0bc"/><path d="m29 16h6l-1-4h-4z" fill="#758190"/><g><path d="m31 20h2v3h-2z" fill="#758190"/></g><g><path d="m31 27h2v3h-2z" fill="#c1c8d1"/></g><g><path d="m31 34h2v3h-2z" fill="#758190"/></g><g><path d="m31 41h2v3h-2z" fill="#c1c8d1"/></g><g><path d="m31 48h2v3h-2z" fill="#758190"/></g><g><path d="m31 55h2v3h-2z" fill="#c1c8d1"/></g><path d="m32.971 12h-2.971l-1 4h1.99c1.122-1.055 1.85-2.451 1.981-4z" fill="#8892a0"/><g><path d="m12.061 24.577c-.877-.412-1.855-.45-2.757-.104-.804.308-1.588.482-2.331.517l.092 1.998c.958-.044 1.952-.262 2.956-.647.388-.148.809-.131 1.189.047.395.186.689.516.829.93 1.978 5.869 2.98 11.986 2.98 18.179 0 5.545-.808 11.048-2.4 16.358l-.257.858 1.916.575.257-.858c1.649-5.496 2.485-11.193 2.485-16.933 0-6.411-1.038-12.743-3.085-18.818-.312-.923-.995-1.688-1.874-2.102z"/><path d="m51.977 24.578c-.88.414-1.562 1.179-1.872 2.1-2.048 6.075-3.086 12.407-3.086 18.818 0 5.738.836 11.435 2.485 16.933l.258.858 1.916-.576-.258-.857c-1.593-5.311-2.4-10.814-2.4-16.358 0-6.194 1.003-12.311 2.981-18.18.14-.414.434-.743.828-.929.382-.178.805-.194 1.189-.048 1.003.386 1.998.604 2.956.648l.092-1.998c-.743-.035-1.527-.208-2.331-.518-.901-.343-1.881-.306-2.758.107z"/><path d="m25.226 6.267c.938-.363 1.704-1.02 2.158-1.851l.142-.26c.322-.589.493-1.256.493-1.929v-1.228h-2v1.228c0 .338-.085.673-.248.969l-.142.261c-.228.417-.627.752-1.125.944-.927.358-1.837.788-2.713 1.278-.032-.017-.067-.028-.099-.045-.155-.078-.314-.15-.476-.214-.066-.026-.133-.05-.201-.073-.144-.051-.29-.096-.438-.136-.072-.02-.144-.039-.218-.056-.154-.035-.311-.063-.469-.086-.065-.01-.13-.022-.195-.03-.222-.025-.447-.041-.675-.041-2.891 0-5.279 2.001-5.856 4.728-2.72-.209-5.924 1.153-8.444 3.673-2.15 2.15-3.49 4.816-3.677 7.313l1.995.149c.149-1.997 1.307-4.258 3.097-6.048 2.346-2.347 5.424-3.535 7.649-2.968.297.077.609.013.852-.171s.389-.469.396-.773c.053-2.188 1.805-3.903 3.988-3.903h.002c.245 0 .482.03.715.072.072.013.143.031.215.048.166.04.327.091.484.151.069.026.138.049.206.079 1.398.624 2.378 2.022 2.378 3.649h2c0-1.518-.571-2.902-1.505-3.96.56-.283 1.13-.546 1.711-.77z"/><path d="m59.319 13.399c-2.52-2.52-5.709-3.874-8.444-3.673-.577-2.726-2.965-4.727-5.856-4.727-.229 0-.453.016-.675.041-.066.007-.13.02-.195.03-.158.023-.315.05-.469.086-.073.017-.145.036-.218.056-.149.04-.295.085-.438.136-.067.024-.134.047-.201.073-.163.064-.321.136-.476.214-.033.016-.067.028-.099.045-.877-.492-1.788-.921-2.718-1.28-.352-.137-.833-.411-1.125-.945l-.142-.26c-.161-.295-.245-.628-.245-.963v-1.233h-2v1.232c0 .668.169 1.332.489 1.919l.142.261c.454.833 1.22 1.491 2.159 1.854.583.225 1.154.489 1.715.772-.933 1.058-1.505 2.442-1.505 3.961h2c0-1.627.98-3.025 2.378-3.649.067-.03.137-.053.206-.079.157-.06.318-.111.484-.151.071-.017.143-.035.215-.048.233-.042.47-.072.715-.072h.002c2.183 0 3.935 1.714 3.988 3.903.007.305.153.589.396.773s.557.247.852.171c2.235-.566 5.304.621 7.65 2.968 1.789 1.789 2.947 4.05 3.097 6.048l1.995-.15c-.186-2.498-1.527-5.164-3.677-7.313z"/><path d="m36.019 21.998h.5c1.379 0 2.5-1.121 2.5-2.5s-1.121-2.5-2.5-2.5h-.5v-1c0-.049-.021-.091-.028-.138-.005-.035.007-.07-.002-.104l-1-4c-.111-.445-.511-.757-.97-.757h-4c-.459 0-.859.312-.97.757l-1 4c-.009.035.003.069-.002.104-.007.047-.028.089-.028.138v1h-.5c-1.379 0-2.5 1.121-2.5 2.5 0 1.378 1.121 2.5 2.5 2.5h.5v1s0 0 0 0v1h-.5c-1.379 0-2.5 1.121-2.5 2.5 0 1.378 1.121 2.5 2.5 2.5h.5v1s0 0 0 0v1h-.5c-1.379 0-2.5 1.121-2.5 2.5 0 1.378 1.121 2.5 2.5 2.5h.5v1s0 0 0 0v1h-.5c-1.379 0-2.5 1.121-2.5 2.5 0 1.378 1.121 2.5 2.5 2.5h.5v1s0 0 0 0v1h-.5c-1.379 0-2.5 1.121-2.5 2.5 0 1.378 1.121 2.5 2.5 2.5h.5v1s0 0 0 0v1h-.5c-1.379 0-2.5 1.121-2.5 2.5 0 1.378 1.121 2.5 2.5 2.5h.5v1c0 .553.447 1 1 1h6c.553 0 1-.447 1-1v-1h.5c1.379 0 2.5-1.121 2.5-2.5s-1.121-2.5-2.5-2.5h-.5v-1s0 0 0 0v-1h.5c1.379 0 2.5-1.121 2.5-2.5s-1.121-2.5-2.5-2.5h-.5v-1s0 0 0 0v-1h.5c1.379 0 2.5-1.121 2.5-2.5s-1.121-2.5-2.5-2.5h-.5v-1s0 0 0 0v-1h.5c1.379 0 2.5-1.121 2.5-2.5s-1.121-2.5-2.5-2.5h-.5v-1s0 0 0 0v-1h.5c1.379 0 2.5-1.121 2.5-2.5s-1.121-2.5-2.5-2.5h-.5v-1s0 0 0 0zm-5.219-8.999h2.438l.5 2h-3.438zm-3.281 6.999c-.276 0-.5-.224-.5-.5s.224-.5.5-.5h1.5c.552 0 1-.448 1-1v-1h4v1c0 .552.448 1 1 1h1.5c.276 0 .5.224.5.5 0 .275-.224.5-.5.5h-1.5c-.552 0-1 .448-1 1v1h-1v-2h-2v2h-1v-1c0-.552-.448-1-1-1zm9 34.001c.276 0 .5.224.5.5 0 .275-.224.5-.5.5h-1.5c-.552 0-1 .448-1 1v1h-1v-2h-2v2h-1v-1c0-.552-.448-1-1-1h-1.5c-.276 0-.5-.224-.5-.5s.224-.5.5-.5h1.5c.552 0 1-.448 1-1v-1h4v1c0 .552.448 1 1 1zm0-7c.276 0 .5.224.5.5 0 .275-.224.5-.5.5h-1.5c-.552 0-1 .448-1 1v1h-1v-2h-2v2h-1v-1c0-.552-.448-1-1-1h-1.5c-.276 0-.5-.224-.5-.5s.224-.5.5-.5h1.5c.552 0 1-.448 1-1v-1h4v1c0 .552.448 1 1 1zm0-7c.276 0 .5.224.5.5 0 .275-.224.5-.5.5h-1.5c-.552 0-1 .448-1 1v1h-1v-2h-2v2h-1v-1c0-.552-.448-1-1-1h-1.5c-.276 0-.5-.224-.5-.5s.224-.5.5-.5h1.5c.552 0 1-.448 1-1v-1h4v1c0 .552.448 1 1 1zm0-7c.276 0 .5.224.5.5 0 .275-.224.5-.5.5h-1.5c-.552 0-1 .448-1 1v1h-1v-2h-2v2h-1v-1c0-.552-.448-1-1-1h-1.5c-.276 0-.5-.224-.5-.5s.224-.5.5-.5h1.5c.552 0 1-.448 1-1v-1h4v1c0 .552.448 1 1 1zm0-7c.276 0 .5.224.5.5 0 .275-.224.5-.5.5h-1.5c-.552 0-1 .448-1 1v1h-1v-2h-2v2h-1v-1c0-.552-.448-1-1-1h-1.5c-.276 0-.5-.224-.5-.5s.224-.5.5-.5h1.5c.552 0 1-.448 1-1v-1h4v1c0 .552.448 1 1 1z"/></g></g></svg>