<?xml version="1.0" encoding="iso-8859-1"?>
<!-- Generator: Adobe Illustrator 19.0.0, SVG Export Plug-In . SVG Version: 6.00 Build 0)  -->
<svg version="1.1" id="Capa_1" xmlns="http://www.w3.org/2000/svg" xmlns:xlink="http://www.w3.org/1999/xlink" x="0px" y="0px"
	 viewBox="0 0 512 512" style="enable-background:new 0 0 512 512;" xml:space="preserve">
<path style="fill:#E8F5FB;" d="M311.155,236.24v-28.849H200.846v28.849c0,4.919-2.042,9.617-5.638,12.972l-33.457,31.218
	c-13.051,12.177-20.46,29.225-20.46,47.075v171.978c0,2.765,2.241,5.007,5.007,5.007h219.408c2.765,0,5.007-2.241,5.007-5.007
	V327.505c0-17.849-7.41-34.898-20.461-47.075l-33.457-31.218C313.197,245.857,311.155,241.159,311.155,236.24z"/>
<path style="fill:#C2E8F5;" d="M370.71,327.51v171.974c0,2.764-2.243,5.007-5.007,5.007h-41.995c2.764,0,5.007-2.243,5.007-5.007
	V327.51c0-17.853-7.41-34.905-20.467-47.081l-33.453-31.221c-3.595-3.354-5.637-8.05-5.637-12.967v-28.848h41.995v28.848
	c0,4.916,2.043,9.613,5.637,12.967l33.464,31.221C363.3,292.604,370.71,309.657,370.71,327.51z"/>
<path style="fill:#F5CA26;" d="M370.711,445.083H245.519c-2.761,0-5-2.239-5-5v-102.52c0-2.761,2.239-5,5-5h125.192V445.083z"/>
<rect x="328.331" y="332.57" style="fill:#EAAF13;" width="42.38" height="112.52"/>
<g>
	<path style="fill:#70CF3D;" d="M328.187,207.392H183.815c-5.473,0-9.91-4.437-9.91-9.91v-47.186c0-5.473,4.437-9.91,9.91-9.91
		h144.373c5.473,0,9.91,4.437,9.91,9.91v47.186C338.098,202.955,333.661,207.392,328.187,207.392z"/>
	<path style="fill:#70CF3D;" d="M338.098,150.309v47.161c0,5.477-4.446,9.923-9.923,9.923h-32.612c5.477,0,9.923-4.446,9.923-9.923
		v-47.161c0-5.477-4.446-9.923-9.923-9.923h32.612C333.652,140.386,338.098,144.832,338.098,150.309z"/>
</g>
<path style="fill:#94E061;" d="M286.011,140.385h-60.02V37.481c0-16.552,13.418-29.971,29.971-29.971h0.078
	c16.552,0,29.971,13.418,29.971,29.971V140.385z"/>
<path style="fill:#70CF3D;" d="M286.01,37.523v102.864h-25.003V37.523c0-8.291-3.364-15.79-8.791-21.218
	c-2.503-2.513-5.457-4.576-8.721-6.068c3.805-1.752,8.04-2.724,12.506-2.724c8.291,0,15.791,3.354,21.218,8.791
	C282.656,21.732,286.01,29.232,286.01,37.523z"/>
<path d="M355.373,274.94l-33.457-31.218c-2.066-1.928-3.251-4.654-3.251-7.481v-21.339h9.509c9.612,0,17.433-7.82,17.433-17.433
	v-47.161c0-9.613-7.821-17.433-17.433-17.433h-34.653V37.52c0-20.689-16.832-37.52-37.52-37.52s-37.52,16.831-37.52,37.52
	c0,4.147,3.362,7.51,7.51,7.51s7.51-3.362,7.51-7.51c0-12.407,10.093-22.5,22.5-22.5c12.407,0,22.5,10.094,22.5,22.5v95.355h-45
	V91.536c0-4.148-3.362-7.51-7.51-7.51s-7.51,3.362-7.51,7.51v41.339h-34.654c-9.612,0-17.433,7.821-17.433,17.433v47.161
	c0,9.613,7.821,17.433,17.433,17.433h9.509v21.339c0,2.827-1.185,5.554-3.251,7.482l-33.457,31.217
	c-14.521,13.548-22.848,32.707-22.848,52.565v171.979c0,6.902,5.615,12.516,12.516,12.516h121.219c4.148,0,7.51-3.362,7.51-7.51
	s-3.362-7.51-7.51-7.51H148.8V327.505c0-15.71,6.588-30.866,18.074-41.584l33.457-31.217c5.1-4.758,8.025-11.488,8.025-18.463
	v-21.339h95.29v21.339c0,6.975,2.925,13.705,8.025,18.463l33.457,31.218c10.887,10.158,17.363,24.306,18.01,39.131H245.525
	c-6.901,0-12.516,5.615-12.516,12.516v102.507c0,6.902,5.615,12.516,12.516,12.516h117.677v44.388h-41.616
	c-4.148,0-7.51,3.362-7.51,7.51s3.362,7.51,7.51,7.51h44.119c6.901,0,12.516-5.615,12.516-12.516v-54.401v-112.52v-5.057
	C378.221,307.647,369.894,288.488,355.373,274.94z M311.156,199.882h-110.31h-17.019c-1.331,0-2.413-1.082-2.413-2.413v-47.161
	c0-1.331,1.082-2.414,2.413-2.414h42.164h60.02h42.164c1.331,0,2.413,1.083,2.413,2.414v47.161c0,1.331-1.082,2.413-2.413,2.413
	H311.156z M363.202,365.271H297.59c-4.148,0-7.51,3.362-7.51,7.51c0,4.147,3.362,7.51,7.51,7.51h65.612v17.065H297.59
	c-4.148,0-7.51,3.362-7.51,7.51c0,4.147,3.362,7.51,7.51,7.51h65.612v25.198H248.029v-97.5h115.173V365.271z"/>
<g>
</g>
<g>
</g>
<g>
</g>
<g>
</g>
<g>
</g>
<g>
</g>
<g>
</g>
<g>
</g>
<g>
</g>
<g>
</g>
<g>
</g>
<g>
</g>
<g>
</g>
<g>
</g>
<g>
</g>
</svg>
