<svg id="Layer_1" enable-background="new 0 0 512 512" height="512" viewBox="0 0 512 512" width="512" xmlns="http://www.w3.org/2000/svg"><g><g><path d="m107.852 203.987c1.702-20.273-9.424-46.616-25.329-59.972-10.136-8.512-18.702-8.604-24.108-7.182-.002.001-.004.001-.007.002-10.486 2.772-18 9.415-21.727 19.212-8.014 21.06 3.233 50.388 12.201 63.923 7.386 11.167 15.769 21.97 22.999 29.64 8.704 9.233 15.102 13.466 20.602 13.466 1.114 0 2.192-.174 3.245-.515 2.338-.758 7.731-3.558 7.324-13.175-.409-9.546.762-16.703 2.118-24.99.943-5.761 2.011-12.289 2.682-20.409zm-14.948-1.246c-.622 7.534-1.596 13.481-2.537 19.232-1.178 7.197-2.301 14.064-2.392 22.471-6.212-5.583-16.223-17.087-26.586-32.755-7.944-11.99-16.079-36.144-10.689-50.308 2.019-5.304 5.685-8.496 11.538-10.044 3.765-.992 8.281 2.184 10.639 4.164 10.824 9.089 21.455 30.237 20.027 47.24z"/><path d="m248.501 131.584v247.302c0 4.142 3.357 7.5 7.5 7.5s7.5-3.358 7.5-7.5v-247.302c0-4.142-3.357-7.5-7.5-7.5-4.142 0-7.5 3.358-7.5 7.5z"/><path d="m404.121 203.988c.681 8.098 1.75 14.606 2.694 20.349 1.365 8.307 2.544 15.48 2.134 25.041-.423 9.616 4.969 12.421 7.307 13.181 1.055.342 2.134.517 3.25.517 5.5 0 11.898-4.233 20.604-13.463 7.241-7.676 15.628-18.481 23.006-29.638 8.968-13.534 20.208-42.857 12.193-63.928-3.727-9.796-11.234-16.44-21.714-19.212-.003-.001-.005-.001-.008-.002-5.404-1.422-13.978-1.331-24.126 7.19-15.911 13.361-27.041 39.7-25.34 59.965zm34.987-48.479c2.057-1.727 5.751-4.359 9.16-4.359.508 0 1.01.059 1.499.188 5.844 1.548 9.505 4.739 11.522 10.042 5.392 14.175-2.737 38.325-10.682 50.315-10.354 15.657-20.365 27.157-26.582 32.743-.092-8.432-1.224-15.318-2.409-22.534-.943-5.735-1.918-11.666-2.549-19.172-1.425-16.984 9.212-38.129 20.041-47.223z"/><path d="m170.89 180.271c3.014-2.841 3.154-7.588.313-10.602-2.841-3.015-7.589-3.153-10.602-.313l-16.328 15.393c-3.014 2.841-3.154 7.588-.313 10.602 1.476 1.565 3.465 2.355 5.458 2.355 1.846 0 3.695-.677 5.144-2.042z"/><path d="m340.77 169.669c-2.842 3.014-2.701 7.761.313 10.602l16.328 15.393c1.449 1.366 3.298 2.042 5.144 2.042 1.993 0 3.982-.79 5.458-2.355 2.842-3.014 2.701-7.761-.313-10.602l-16.328-15.393c-3.015-2.84-7.76-2.702-10.602.313z"/><path d="m485.751 107.947c-11.327-9.326-24.821-12.918-39.016-10.394-4.078.726-6.796 4.62-6.07 8.698.726 4.077 4.612 6.794 8.697 6.07 9.741-1.731 19.025.76 26.855 7.206 12.625 10.394 20.39 29.838 20.77 52.008.572 34.77-19.773 85.255-78.59 122.671-1.848 1.175-3.089 3.099-3.399 5.266-11.192 78.245-124.682 125.815-159 126.735-18.618-.486-57.677-14.094-91.055-36.12-3.459-2.281-8.111-1.328-10.391 2.129-2.281 3.458-1.328 8.109 2.129 10.391 37.482 24.733 78.253 38.14 99.154 38.6.055.001.109.002.164.002.057 0 .113 0 .17-.002 20.257-.457 60.024-13.352 96.836-37.117 30.507-19.694 68.11-52.715 76.296-99.073 26.192-17.213 47.614-39.01 62.084-63.208 13.854-23.168 20.978-47.554 20.601-70.527-.456-26.51-10.263-50.186-26.235-63.335z"/><path d="m138.854 369.975c-24.214-21.869-38.305-45.591-41.881-70.507-.311-2.166-1.552-4.087-3.396-5.262-58.897-37.486-79.132-89.508-78.563-122.672.488-29.817 14.495-54.021 34.062-58.858 10.158-2.51 21.536.296 32.9 8.118 14.064 9.68 27.637 26.349 40.341 49.544 1.096 2.001 3.043 3.394 5.291 3.786 2.25.392 4.552-.262 6.26-1.774l74.83-66.272c14.719-13.013 30.633-19.837 47.304-20.284 16.672.448 32.586 7.271 47.297 20.279l74.837 66.277c1.708 1.513 4.011 2.165 6.264 1.772 2.249-.393 4.196-1.789 5.29-3.792 10.356-18.961 21.46-33.704 33.001-43.821 3.115-2.73 3.427-7.469.696-10.584-2.729-3.114-7.469-3.427-10.583-.696-11.115 9.743-21.734 23.094-31.641 39.767l-67.924-60.156c-17.491-15.466-36.688-23.557-57.057-24.047-.12-.003-.239-.003-.361 0-20.368.49-39.565 8.581-57.063 24.051l-67.924 60.156c-12.561-21.119-26.11-36.76-40.352-46.562-14.999-10.324-30.559-13.892-45.006-10.324-26.582 6.572-44.851 35.978-45.461 73.169-.394 22.96 6.726 47.348 20.587 70.527 14.467 24.193 35.886 45.992 62.071 63.208 4.817 27.201 20.321 52.782 46.126 76.089 1.435 1.296 3.232 1.934 5.025 1.934 2.047 0 4.087-.834 5.567-2.473 2.777-3.074 2.536-7.817-.537-10.593z"/></g></g></svg>