<svg id="Capa_1" enable-background="new 0 0 504.31 504.31" height="512" viewBox="0 0 504.31 504.31" width="512" xmlns="http://www.w3.org/2000/svg"><g id="XMLID_86_"><path id="XMLID_3765_" d="m434.586 188.05-21.213-21.213 45.257-45.257c20.926-20.926 20.926-54.975 0-75.9-20.926-20.924-54.975-20.925-75.9 0l-33.077 33.078-21.213-21.213 33.077-33.078c32.623-32.621 85.703-32.623 118.326 0 32.623 32.622 32.623 85.703 0 118.326z" fill="#537983"/><path id="XMLID_3757_" d="m83.63 504.31c-21.426 0-42.852-8.155-59.163-24.467-32.622-32.623-32.622-85.703 0-118.326l32.565-32.564 21.213 21.213-32.565 32.564c-20.925 20.926-20.925 54.975 0 75.9 20.927 20.927 54.976 20.927 75.9 0l45.257-45.257 21.213 21.213-45.257 45.257c-16.312 16.311-37.738 24.467-59.163 24.467z" fill="#7da1b3"/><path id="XMLID_3802_" d="m390.505 98.397-40.853-40.853c-26.816-26.816-70.447-26.816-97.264 0l-12.664 12.664c-12.861 12.858-32.271 15.722-48.293 7.122-13.526-7.26-28.706-9.911-43.889-7.673-15.186 2.24-28.949 9.161-39.804 20.016l-18.578 18.578c-10.854 10.854-17.775 24.618-20.016 39.804-2.239 15.187.414 30.363 7.673 43.888 8.6 16.025 5.737 35.434-7.122 48.294l-12.664 12.664c-26.816 26.815-26.816 70.448 0 97.264l39.632 39.632c39.577 39.577 92.167 61.364 148.11 61.364.078 0 .158 0 .237-.001 55.271-.061 107.058-21.537 145.821-60.473 38.926-39.098 60.332-91.018 60.275-146.196-.055-55.186-21.578-107.07-60.601-146.094z" fill="#e6ecf2"/><path id="XMLID_4524_" d="m390.5 391.013c.11-.11.223-.216.333-.326 38.926-39.098 60.332-91.018 60.275-146.196-.058-55.187-21.58-107.07-60.604-146.094l-40.853-40.853c-26.816-26.816-70.447-26.816-97.264 0l-12.664 12.664c-12.861 12.858-32.271 15.722-48.293 7.122-13.526-7.26-28.706-9.911-43.889-7.673-15.186 2.24-28.949 9.161-39.804 20.016l-9.289 9.289z" fill="#d6d6da"/><circle id="XMLID_3755_" cx="252.11" cy="252.623" fill="#d6d6da" r="46.042"/><path id="XMLID_3768_" d="m278.537 190.268h41.857v30h-41.857z" fill="#537983" transform="matrix(.707 -.707 .707 .707 -57.435 271.876)"/><path id="XMLID_3767_" d="m183.827 284.979h41.857v30h-41.857z" fill="#7da1b3" transform="matrix(.707 -.707 .707 .707 -152.146 232.645)"/><path id="XMLID_3769_" d="m252.11 313.666c-16.305 0-31.634-6.35-43.163-17.88-23.801-23.8-23.801-62.526 0-86.326 23.801-23.801 62.525-23.801 86.326 0 11.53 11.529 17.88 26.858 17.88 43.163s-6.35 31.634-17.88 43.163c-11.529 11.53-26.858 17.88-43.163 17.88zm0-92.07c-7.949 0-15.898 3.025-21.95 9.077-12.104 12.104-12.104 31.797 0 43.9 5.863 5.863 13.659 9.093 21.95 9.093s16.087-3.229 21.95-9.093 9.093-13.658 9.093-21.95-3.229-16.087-9.093-21.95c-6.051-6.052-14.001-9.077-21.95-9.077z" fill="#a8d3d8"/><path id="XMLID_4523_" d="m284.667 285.18c17.98-17.981 17.98-47.133 0-65.114-17.981-17.981-47.133-17.981-65.114 0z" fill="#babac0"/><path id="XMLID_4535_" d="m252.11 221.596c7.949 0 15.898 3.025 21.95 9.077 5.863 5.863 9.093 13.658 9.093 21.95s-3.229 16.087-9.093 21.95l21.213 21.213c11.53-11.529 17.88-26.858 17.88-43.163s-6.35-31.634-17.88-43.163c-23.801-23.801-62.525-23.801-86.326 0l21.213 21.213c6.052-6.052 14.001-9.077 21.95-9.077z" fill="#7da1b3"/></g></svg>