<svg id="Capa_1" enable-background="new 0 0 512 512" height="512" viewBox="0 0 512 512" width="512" xmlns="http://www.w3.org/2000/svg"><g><path d="m80.27 389.304 309.034-309.034c12.509-12.509 28.746-19.059 45.167-19.678-2.359-8.335-6.801-16.198-13.349-22.746-9.916-9.916-23.101-15.378-37.123-15.378-14.023 0-27.207 5.461-37.123 15.377l-309.03 309.03c-20.47 20.47-20.47 53.776 0 74.246 6.548 6.548 14.412 10.991 22.746 13.349.619-16.42 7.17-32.657 19.678-45.166z" fill="#77a11f"/><path d="m484.764 80.27-21.214-21.213-404.493 404.493 21.213 21.213c26.318 26.319 69.141 26.319 95.459 0l309.034-309.034c26.319-26.318 26.319-69.141.001-95.459z" fill="#77a11f"/><path d="m483.293 106.786c-.007-17.289-6.583-34.571-19.742-47.73l-31.82-31.82-10.609 10.609c20.47 20.47 20.47 53.776 0 74.246l-309.03 309.03c-20.47 20.47-53.776 20.47-74.246 0l-10.609 10.609 31.82 31.82c26.318 26.318 69.141 26.318 95.459 0l309.034-309.034c13.16-13.159 19.736-30.441 19.743-47.73z" fill="#8db23e"/><path d="m431.729 27.239c-26.318-26.318-69.141-26.318-95.459 0l-309.03 309.03c-26.318 26.318-26.318 69.141 0 95.459s69.141 26.318 95.459 0l309.03-309.03c26.318-26.318 26.318-69.141 0-95.459zm-330.244 383.276c-14.645 14.645-38.388 14.645-53.033 0s-14.645-38.388 0-53.033l309.03-309.03c14.645-14.645 38.388-14.645 53.033 0s14.645 38.388 0 53.033z" fill="#b8d47d"/><path d="m74.969 428.978c11.524 0 23.047-4.386 31.82-13.159l309.03-309.03c17.545-17.545 17.545-46.094 0-63.64-17.546-17.545-46.092-17.546-63.64 0l-309.03 309.03c-17.545 17.545-17.545 46.094 0 63.64 8.773 8.772 20.296 13.159 31.82 13.159zm-21.214-66.193 309.031-309.03c5.848-5.848 13.53-8.772 21.212-8.772 7.683 0 15.365 2.924 21.213 8.772 1.457 1.457 2.731 3.027 3.825 4.683-9.333 3.751-17.873 9.367-25.038 16.531l-21.213 21.213c-2.929 2.929-2.929 7.678 0 10.606 1.465 1.464 3.385 2.197 5.304 2.197s3.839-.732 5.304-2.197l21.212-21.213c5.542-5.542 12.109-9.928 19.282-12.923.648 8.435-2.239 17.093-8.676 23.53l-309.029 309.03c-6.437 6.437-15.095 9.323-23.53 8.676 2.995-7.174 7.382-13.741 12.923-19.283l266.604-266.604c2.929-2.929 2.929-7.678 0-10.606-2.93-2.929-7.678-2.929-10.607 0l-266.603 266.604c-7.164 7.164-12.78 15.704-16.531 25.038-1.655-1.094-3.226-2.368-4.682-3.824-11.697-11.698-11.697-30.731-.001-42.428z"/><path d="m490.065 74.968-53.032-53.033c-14.146-14.145-32.981-21.935-53.033-21.935-20.055 0-38.889 7.79-53.034 21.936l-309.03 309.03c-14.145 14.145-21.936 32.979-21.936 53.033 0 20.053 7.79 38.888 21.936 53.033l53.033 53.033c14.145 14.145 32.979 21.935 53.033 21.935 20.053 0 38.888-7.79 53.033-21.936l309.03-309.03c14.144-14.145 21.935-32.979 21.935-53.033 0-20.053-7.791-38.888-21.935-53.033zm-457.523 266.604 309.03-309.03c11.697-11.697 27.062-17.545 42.428-17.545 15.364 0 30.729 5.849 42.426 17.545 23.395 23.394 23.395 61.459 0 84.853l-309.03 309.03c-23.394 23.394-61.458 23.394-84.853 0-11.313-11.312-17.543-26.38-17.543-42.426s6.23-31.115 17.542-42.427zm446.916-171.144-309.029 309.03c-11.313 11.312-26.38 17.542-42.427 17.542s-31.115-6.23-42.427-17.542l-21.243-21.243c3.494.492 7.044.752 10.636.752 20.054 0 38.888-7.79 53.033-21.936l309.031-309.03c14.145-14.145 21.936-32.979 21.936-53.033 0-3.592-.26-7.141-.752-10.635l21.241 21.241c11.313 11.313 17.543 26.38 17.543 42.427s-6.23 31.115-17.542 42.427z"/></g></svg>