<svg id="Layer_1" enable-background="new 0 0 512.011 512.011" height="512" viewBox="0 0 512.011 512.011" width="512" xmlns="http://www.w3.org/2000/svg"><g><g><path d="m279.308 163.924c4.855 21.242-3.036 42.425-18.641 55.535 6.632 40.624-19.404 79.936-60.081 89.234-26.735 6.111-53.409-2.197-71.866-19.819-9.172-8.76-16.304-19.812-20.423-32.534-7.68 9.882-18.676 17.256-31.819 20.26-6.766 1.546-13.508 1.799-19.995.934-.015-.009-.015-.009-.015-.009l.105.461c3.029 13.252-5.258 26.45-18.51 29.479s-26.45-5.258-29.479-18.51c-2.732-11.955 3.745-23.859 14.772-28.305-6.787-7.086-11.791-16.034-14.133-26.279-2.516-11.009-1.608-21.997 2.019-31.859 6.332-17.229 20.979-31.013 40.209-35.408 1.601-.366 3.205-.656 4.788-.877-.32-31.095 20.98-59.31 52.54-66.523 23.364-5.34 46.658 2.132 62.549 17.79 5.519 5.449 10.158 11.903 13.587 19.144 7.209-7.197 16.468-12.516 27.125-14.952 30.237-6.913 60.357 11.999 67.268 42.238z" fill="#d2d1d3"/><g fill="#b1aeb5"><path d="m120.484 216.504c1.45 14.774-3.494 28.7-12.188 39.835-7.68 9.882-18.676 17.256-31.819 20.26-6.766 1.546-13.508 1.799-19.995.934-.015-.009-.015-.009-.015-.009-12.751-1.755-24.396-7.769-33.111-16.876-6.787-7.086-11.791-16.034-14.133-26.279-2.516-11.009-1.608-21.997 2.019-31.859.055-.038.077-.056.077-.056.233 2.358.622 4.731 1.165 7.108 6.947 30.396 37.215 49.402 67.612 42.455 19.302-4.412 34.004-18.234 40.388-35.513z"/><path d="m260.667 219.459c6.632 40.624-19.404 79.936-60.081 89.234-26.735 6.111-53.409-2.197-71.866-19.819 16.493 6.296 37.448 8.052 54.082 4.25 41.102-9.394 66.805-50.328 57.411-91.43-2.602-11.385-7.627-21.591-14.404-30.197 15.287 10.448 30.405 28.477 34.858 47.962z"/><path d="m171.327 117.491c-.279.51-.432.788-.432.788-13.187-5.393-28.103-6.909-43.053-3.492-38.653 8.835-62.822 47.325-53.987 85.978.962 4.207 2.28 8.244 3.897 12.084-9.291-8.721-16.178-20.211-19.232-33.572-1-4.377-2.161-8.73-2.282-13.053-.32-31.095 20.98-59.31 52.54-66.523 23.364-5.34 46.659 2.132 62.549 17.79z"/></g></g><path d="m7.511 353.851h30v51.093h-30z" fill="#f4dd45"/><path d="m504.511 353.85v51.09l-84.55 1.81-156.12 3.34-127.78 2.74-98.55 2.11v-71.09l83.531 1.79 156.459 3.35 130.16 2.79z" fill="#e58e53"/><g fill="#dd5824"><path d="m504.511 353.85v51.09l-84.55 1.81-12.3-54.97z"/><path d="m277.501 348.99-13.66 61.1-127.78 2.74-15.019-67.19z"/></g></g><g><path d="m12.051 258.798c-9.123 7.613-13.462 19.861-10.594 32.025 1.971 8.36 7.079 15.452 14.384 19.97 7.305 4.519 15.934 5.923 24.292 3.95 8.36-1.97 15.452-7.079 19.97-14.384 2.865-4.633 4.478-9.797 4.771-15.089 4.533-.081 9.058-.65 13.529-1.704 10.231-2.412 19.687-7.334 27.503-14.208 7.64 15.386 19.753 28.19 34.963 36.745 13.019 7.322 27.524 11.077 42.195 11.076 6.623 0 13.283-.766 19.851-2.314 42.843-10.099 71.083-50.993 65.843-94.223 16.059-15.599 22.784-38.336 17.597-60.339-3.907-16.574-14.035-30.635-28.517-39.592s-31.585-11.738-48.161-7.831c-8.484 2-16.405 5.686-23.324 10.812-7.426-11.367-17.911-20.645-30.247-26.623-15.477-7.501-33.237-9.456-50.006-5.502-16.803 3.961-31.841 13.668-42.343 27.333-9.058 11.786-14.432 26.064-15.438 40.767-16.214 4.046-29.957 14.076-38.764 28.316-8.957 14.482-11.738 31.586-7.831 48.16 1.933 8.196 5.454 15.891 10.327 22.655zm10.262-62.926c6.85-11.075 17.602-18.82 30.276-21.808 1.368-.322 2.767-.589 4.159-.794 3.729-.549 6.473-3.78 6.408-7.549-.483-28.059 19.025-53.105 46.386-59.556 27.29-6.431 55.899 7.205 68.034 32.426 1.057 2.198 3.117 3.744 5.521 4.146 2.405.4 4.855-.39 6.57-2.125 6.414-6.487 14.523-11.029 23.452-13.134 12.675-2.988 25.753-.861 36.829 5.989 11.075 6.85 18.82 17.602 21.808 30.276 4.215 17.882-1.86 36.4-15.856 48.329-2.012 1.714-2.973 4.361-2.529 6.967 6.291 36.939-17.383 72.618-53.897 81.225-17.442 4.112-35.644 1.542-51.251-7.236-15.517-8.727-27.13-22.8-32.7-39.626-.874-2.637-3.133-4.576-5.873-5.038-.417-.07-.834-.104-1.249-.104-2.309 0-4.519 1.068-5.952 2.938-6.809 8.884-16.571 15.194-27.489 17.768-5.737 1.352-11.582 1.661-17.371.92-2.463-.313-4.922.609-6.567 2.468-1.646 1.858-2.265 4.412-1.654 6.818l.083.337c1.051 4.46.303 9.063-2.108 12.96-2.41 3.897-6.194 6.623-10.655 7.674-4.458 1.052-9.063.303-12.959-2.107-3.897-2.41-6.623-6.194-7.674-10.654-1.946-8.255 2.323-16.581 10.15-19.796 2.302-.946 3.985-2.971 4.493-5.408.508-2.436-.226-4.965-1.959-6.752-6.1-6.288-10.393-14.146-12.415-22.725-2.987-12.675-.86-25.754 5.989-36.829z"/><path d="m504.672 346.353-319.165-6.835c-4.115-.074-7.57 3.197-7.659 7.338-.088 4.141 3.197 7.57 7.338 7.659l83.001 1.777-10.386 46.433-115.754 2.479-11.6-51.862 20.626.442c4.158.127 7.57-3.196 7.659-7.337.088-4.141-3.197-7.57-7.338-7.659l-113.723-2.435c-2.033-.045-3.965.728-5.407 2.138-1.441 1.411-2.254 3.343-2.254 5.36v2.5h-22.5c-4.142 0-7.5 3.358-7.5 7.5v51.093c0 4.142 3.358 7.5 7.5 7.5h22.5v2.5c0 2.017.812 3.949 2.254 5.36 1.403 1.374 3.287 2.14 5.246 2.14.053 0 .107 0 .161-.001l316.042-6.768c4.141-.089 7.426-3.518 7.338-7.659-.089-4.141-3.481-7.422-7.659-7.338l-80.146 1.716 10.238-45.775 118.142 2.53 9.014 40.303-23.044.494c-4.141.088-7.426 3.518-7.337 7.659.087 4.086 3.427 7.339 7.495 7.339.054 0 .109 0 .164-.001l116.753-2.5c4.079-.087 7.339-3.419 7.339-7.499v-51.093c.001-4.08-3.259-7.411-7.338-7.498zm-489.661 51.091v-36.093h15v36.093zm30-45.931 69.991 1.499 11.747 52.52-81.738 1.75zm452 46.09-71.073 1.522-8.867-39.645 79.94 1.712z"/></g></svg>