<?xml version="1.0"?>
<svg xmlns="http://www.w3.org/2000/svg" width="512" height="512" viewBox="0 0 128 128"><g><g><path d="M80.625,78.209H80.6c.016-.353.027-.707.027-1.064A23.815,23.815,0,0,0,36.466,64.769,15.689,15.689,0,0,0,12,77.771c0,.167.02.328.025.493a11.374,11.374,0,0,0,1.1,22.7h67.5a11.375,11.375,0,0,0,0-22.75Z" fill="#c8ffff"/><path d="M70.625,78.9a1.749,1.749,0,0,1-1.75-1.75A12.076,12.076,0,0,0,56.812,65.084a1.75,1.75,0,0,1,0-3.5A15.58,15.58,0,0,1,72.375,77.146,1.749,1.749,0,0,1,70.625,78.9Z" fill="#70efef"/><path d="M114.844,54.736c.005-.183.027-.363.027-.547A17.428,17.428,0,0,0,87.692,39.744a26.456,26.456,0,0,0-49.056,13.75c0,.4.013.79.03,1.182h-.03a12.628,12.628,0,0,0-11.508,7.437c.187-.007.371-.028.559-.028a15.611,15.611,0,0,1,8.779,2.685A23.815,23.815,0,0,1,80.625,77.146c0,.357-.011.711-.027,1.064h.027a11.308,11.308,0,0,1,6.024,1.738h26.973a12.635,12.635,0,0,0,1.222-25.211Z" fill="#70efef"/></g><g><path d="M41.187,99.209H36.312a1.75,1.75,0,0,0,0,3.5h4.875a1.75,1.75,0,1,0,0-3.5Z"/><path d="M68.875,77.146a1.75,1.75,0,1,0,3.5,0A15.58,15.58,0,0,0,56.812,61.584a1.75,1.75,0,0,0,0,3.5A12.076,12.076,0,0,1,68.875,77.146Z"/><path d="M116.6,53.234a19.177,19.177,0,0,0-6.642-13.58,1.75,1.75,0,1,0-2.285,2.652,15.671,15.671,0,0,1,5.45,11.883c0,.066-.006.132-.011.2-.006.1-.012.2-.015.295a1.751,1.751,0,0,0,1.582,1.8A10.885,10.885,0,0,1,113.622,78.2h-26.5a13.054,13.054,0,0,0-4.75-1.619A25.564,25.564,0,0,0,35.929,62.4a17.312,17.312,0,0,0-5.775-1.887A10.9,10.9,0,0,1,38.6,56.425h.067A1.748,1.748,0,0,0,40.414,54.6c-.016-.367-.027-.736-.027-1.108A24.7,24.7,0,0,1,86.2,40.655a1.751,1.751,0,0,0,2.475.539,15.6,15.6,0,0,1,8.772-2.683,1.75,1.75,0,0,0,0-3.5,19.1,19.1,0,0,0-9.215,2.355A28.2,28.2,0,0,0,36.891,53.032a14.427,14.427,0,0,0-10.866,7.383A17.466,17.466,0,0,0,10.278,76.77a13.126,13.126,0,0,0,2.847,25.939h9.312a1.75,1.75,0,0,0,0-3.5H13.125a9.624,9.624,0,0,1-.933-19.2,1.75,1.75,0,0,0,1.582-1.8l-.015-.263c0-.056-.009-.111-.009-.168A13.942,13.942,0,0,1,27.124,63.863h.007c.186-.007.369-.028.556-.028a13.866,13.866,0,0,1,7.8,2.385,1.751,1.751,0,0,0,2.475-.539A22.064,22.064,0,0,1,78.875,77.146c0,.331-.011.66-.025.986a1.758,1.758,0,0,0,.5,1.287,1.78,1.78,0,0,0,1.278.54,9.625,9.625,0,0,1,0,19.25H55.062a1.75,1.75,0,0,0,0,3.5H80.625A13.11,13.11,0,0,0,91.1,81.7h22.521A14.387,14.387,0,0,0,116.6,53.234Z"/></g></g></svg>
