<?xml version="1.0" encoding="iso-8859-1"?>
<!-- Generator: Adobe Illustrator 19.0.0, SVG Export Plug-In . SVG Version: 6.00 Build 0)  -->
<svg version="1.1" id="Capa_1" xmlns="http://www.w3.org/2000/svg" xmlns:xlink="http://www.w3.org/1999/xlink" x="0px" y="0px"
	 viewBox="0 0 512.001 512.001" style="enable-background:new 0 0 512.001 512.001;" xml:space="preserve">
<path style="fill:#FFDAAE;" d="M459.26,290.764c8.724-1.333,13.454-10.947,9.186-18.672l-36.842-66.688
	c0.001-0.186,0.007-0.37,0.007-0.557c0-4.951-0.188-32.69-0.551-37.548l-1.542-13.866C415.764,59.886,335.623,10.762,238.433,10.006
	C131.657,9.175,43.35,95.54,41.991,202.31C40.9,288.031,95.185,361.216,171.325,388.379l-19.723,92.831L308.432,502l22.876-85.006
	c0.296,0.373,83.879,7.389,85.488,7.389c10.023,0,17.43-7.718,17.038-17.038V295.091L459.26,290.764z"/>
<path d="M289.387,421.3c-0.65,0-1.311-0.06-1.95-0.19c-0.64-0.13-1.27-0.32-1.87-0.57c-0.609-0.25-1.19-0.56-1.729-0.92
	c-0.55-0.37-1.061-0.789-1.521-1.25c-0.46-0.46-0.88-0.97-1.25-1.52c-0.35-0.54-0.66-1.12-0.91-1.72
	c-0.25-0.61-0.449-1.23-0.569-1.87c-0.13-0.65-0.2-1.3-0.2-1.96c0-0.65,0.07-1.31,0.2-1.95c0.12-0.64,0.319-1.27,0.569-1.87
	c0.25-0.61,0.561-1.19,0.91-1.73c0.37-0.55,0.79-1.06,1.25-1.52s0.971-0.88,1.521-1.24c0.54-0.36,1.12-0.67,1.729-0.92
	c0.601-0.25,1.23-0.44,1.87-0.57c1.29-0.26,2.62-0.26,3.9,0c0.64,0.13,1.27,0.32,1.88,0.57c0.6,0.25,1.18,0.56,1.72,0.92
	c0.55,0.36,1.061,0.78,1.521,1.24s0.88,0.97,1.239,1.52c0.36,0.54,0.67,1.12,0.92,1.73c0.25,0.6,0.45,1.23,0.57,1.87
	c0.13,0.64,0.2,1.3,0.2,1.95c0,0.66-0.07,1.31-0.2,1.96c-0.12,0.64-0.32,1.26-0.57,1.87c-0.25,0.6-0.56,1.18-0.92,1.72
	c-0.359,0.55-0.779,1.06-1.239,1.52c-0.46,0.461-0.971,0.88-1.521,1.25c-0.54,0.36-1.12,0.67-1.72,0.92
	c-0.61,0.25-1.24,0.44-1.88,0.57C290.696,421.24,290.037,421.3,289.387,421.3z"/>
<path style="fill:#FF8C5A;" d="M187.189,67.681c-10.773,3.914-19.105,11.909-23.271,22.093c-2.146-0.295-4.377-0.505-6.607-0.505
	c-14.35,0-27.774,6.859-35.854,18.306c-10.268,14.518-9.805,33.54,0,47.553c-14.687,6.859-24.45,21.294-24.45,37.832
	c0,17.422,11.068,32.53,26.848,38.884c-7.785,10.815-9.763,25.165-4.334,37.874c8.837,18.853,26.007,26.091,43.345,24.029
	c6.186,16.58,20.115,26.428,38.463,27.017c8.458,0,16.622-2.47,23.44-7.141c0.028,0.019-0.028-0.019,0,0V72.383
	C214.5,65.187,202.17,63.094,187.189,67.681z"/>
<path d="M171.081,273.089c-5.523,0-10-4.477-10-10s4.477-10,10-10c11.056,0,20.05-8.995,20.05-20.05c0-5.523,4.477-10,10-10
	s10,4.477,10,10C211.132,255.123,193.165,273.089,171.081,273.089z"/>
<path d="M165.986,188.766c-5.523,0-10-4.477-10-10s4.477-10,10-10c11.056,0,20.05-8.995,20.05-20.05c0-5.523,4.477-10,10-10
	s10,4.477,10,10C206.036,170.8,188.07,188.766,165.986,188.766z"/>
<path style="fill:#FF5A5A;" d="M262.348,318.325c10.773-3.914,19.105-11.909,23.272-22.093c2.146,0.295,4.376,0.505,6.607,0.505
	c14.35,0,27.774-6.859,35.854-18.306c10.268-14.518,9.805-33.54,0-47.553c14.687-6.859,24.45-21.294,24.45-37.832
	c0-17.422-11.068-32.53-26.849-38.884c7.785-10.815,9.763-25.165,4.335-37.874c-8.837-18.853-26.007-26.091-43.345-24.029
	c-6.186-16.58-20.115-26.428-38.463-27.017c-8.459,0-16.623,2.47-23.44,7.141l0,0v241.241
	C224.768,313.623,247.359,322.906,262.348,318.325z"/>
<path d="M248.405,162.967c-5.523,0-10-4.477-10-10c0-22.084,17.966-40.05,40.05-40.05c5.522,0,10,4.477,10,10
	c0,5.523-4.478,10-10,10c-11.056,0-20.05,8.995-20.05,20.05C258.405,158.49,253.928,162.967,248.405,162.967z"/>
<path d="M253.5,247.29c-5.523,0-10-4.477-10-10c0-22.084,17.966-40.05,40.05-40.05c5.523,0,10,4.477,10,10s-4.477,10-10,10
	c-11.056,0-20.05,8.995-20.05,20.05C263.501,242.813,259.023,247.29,253.5,247.29z"/>
<path d="M477.199,267.257l-35.593-64.428c-0.032-7.822-0.21-31.408-0.572-36.273c-0.01-0.121-0.02-0.241-0.034-0.362l-1.542-13.866
	c-0.013-0.117-0.027-0.233-0.045-0.349c-6.946-47.246-30.585-86.393-68.36-113.21C335.897,13.811,290.065,0.407,238.51,0.006
	C237.968,0.002,237.438,0,236.897,0C125.186,0,33.414,90.369,31.992,202.182c-1.078,84.651,49.93,160.918,127.773,192.491
	l-17.944,84.458c-0.579,2.726,0.005,5.57,1.613,7.846c1.607,2.276,4.092,3.779,6.855,4.145l156.83,20.791
	c0.444,0.059,0.886,0.088,1.322,0.088c4.462,0,8.461-2.989,9.648-7.402l20.662-76.78c1.488,0.138,3.138,0.288,4.919,0.447
	c9.233,0.83,20.89,1.832,29.041,2.527c7.038,0.6,42.238,3.59,44.086,3.59c7.657,0,14.692-2.939,19.809-8.274
	c4.905-5.115,7.467-11.837,7.229-18.95V303.533l17.036-2.899c7.285-1.146,13.57-5.773,16.828-12.394
	C480.97,281.588,480.784,273.745,477.199,267.257z M459.752,279.41c-0.282,0.573-0.858,1.293-2.003,1.468
	c-0.056,0.008-0.111,0.018-0.167,0.027l-25.426,4.327c-4.807,0.818-8.322,4.983-8.322,9.858v112.253c0,0.14,0.003,0.28,0.009,0.42
	c0.092,2.183-0.859,3.653-1.674,4.503c-1.268,1.321-3.098,2.068-5.17,2.114c-5.696-0.356-77.168-6.371-83.763-7.199
	c-1.286-0.253-2.626-0.254-3.953,0.02c-3.698,0.765-6.65,3.547-7.632,7.194l-20.598,76.539L163.63,472.716l15.433-72.638
	l69.06,13.485c0.648,0.127,1.292,0.188,1.927,0.188c4.687,0,8.872-3.313,9.804-8.085c1.059-5.42-2.478-10.673-7.898-11.731
	l-77.932-15.217c-74.023-26.725-123.038-97.472-122.034-176.28c1.291-101.383,84.846-183.2,186.365-182.432
	C337.98,20.781,407.413,72.391,419.6,154.717l1.5,13.485c0.199,3.036,0.355,15.118,0.44,24.801h-21.444c-5.522,0-10,4.477-10,10
	s4.478,10,10,10h24.282l35.315,63.925C460.253,277.941,460.034,278.837,459.752,279.41z"/>
<path d="M339.309,150.095c4.956-12.001,5.051-25.688-0.096-37.736c-0.046-0.106-0.093-0.212-0.142-0.316
	c-8.952-19.097-25.86-29.998-46.105-30.139c-8.716-16.414-24.547-26.019-44.437-26.657c-0.107-0.004-0.214-0.005-0.321-0.005
	c-8.259,0-16.218,1.895-23.362,5.509c-12.013-6.312-25.631-7.21-40.586-2.632c-0.164,0.05-0.326,0.104-0.487,0.163
	c-10.849,3.942-19.922,11.412-25.729,20.993c-0.247-0.004-0.491-0.006-0.734-0.006c-17.604,0-34.061,8.426-44.018,22.531
	c-10.349,14.633-12.093,33.528-5.227,49.686c-13.196,9.681-21.058,24.813-21.058,41.474c0,17.448,8.839,33.363,23.222,42.95
	c-4.956,12.001-5.05,25.688,0.096,37.736c0.045,0.106,0.093,0.211,0.142,0.316c8.952,19.098,25.859,29.999,46.105,30.139
	c8.715,16.414,24.546,26.018,44.436,26.657c0.107,0.003,0.214,0.005,0.321,0.005c8.7,0,17.067-2.101,24.498-6.102
	c5.986,2.017,16.431,4.923,26.923,4.923c4.266,0,8.539-0.481,12.521-1.698c0.165-0.051,0.329-0.105,0.491-0.165
	c10.851-3.941,19.923-11.411,25.73-20.993c0.247,0.004,0.491,0.006,0.734,0.006c17.605,0,34.062-8.426,44.018-22.531
	c10.349-14.632,12.092-33.528,5.227-49.685c13.197-9.681,21.059-24.813,21.059-41.474
	C362.53,175.598,353.69,159.683,339.309,150.095z M172.235,290.251c-1.472-3.946-5.234-6.505-9.364-6.505
	c-0.393,0-0.789,0.023-1.187,0.07c-14.701,1.746-26.726-4.877-33.033-18.183c-2.636-6.277-2.847-13.315-0.796-19.756
	c3.098,1.08,6.333,1.622,9.56,1.622c7.222,0,14.394-2.712,19.835-8.152c3.905-3.905,3.905-10.237,0-14.143
	c-3.905-3.905-10.237-3.905-14.143,0c-3.185,3.185-8.764,2.986-12.181-0.433c-0.085-0.085-0.177-0.158-0.264-0.239
	c-0.107-0.099-0.213-0.198-0.324-0.293c-0.179-0.153-0.363-0.295-0.55-0.434c-0.096-0.07-0.188-0.143-0.287-0.211
	c-0.242-0.166-0.491-0.317-0.743-0.46c-0.055-0.031-0.107-0.066-0.162-0.096c-0.333-0.179-0.672-0.341-1.019-0.48
	c-12.495-5.038-20.569-16.655-20.569-29.601c0-8.577,3.45-16.505,9.406-22.356c5.11,7.51,13.674,12.391,23.388,12.391
	c5.523,0,10-4.477,10-10s-4.477-10-10-10c-4.501,0-8.17-3.629-8.352-8.261c-0.002-0.047-0.01-0.092-0.013-0.139
	c-0.008-0.153-0.026-0.305-0.041-0.458c-0.02-0.203-0.041-0.405-0.073-0.603c-0.022-0.136-0.051-0.27-0.078-0.404
	c-0.044-0.215-0.091-0.428-0.148-0.637c-0.033-0.121-0.071-0.241-0.108-0.361c-0.068-0.217-0.142-0.43-0.224-0.64
	c-0.045-0.115-0.092-0.229-0.141-0.342c-0.09-0.208-0.189-0.411-0.292-0.612c-0.058-0.112-0.115-0.223-0.177-0.333
	c-0.112-0.198-0.233-0.388-0.358-0.577c-0.051-0.077-0.092-0.158-0.145-0.233c-7.592-10.85-7.603-25.336-0.023-36.054
	c5.898-8.355,15.509-13.509,25.965-14.021c3.973,10.972,14.588,18.845,27.031,18.845c5.523,0,10-4.477,10-10s-4.477-10-10-10
	c-4.178,0-7.675-2.853-8.512-6.643c3.317-6.608,9.008-11.659,16.259-14.356c9.426-2.84,17.306-2.575,24.399,0.882V307.85
	c-4.079,1.895-8.59,2.892-13.282,2.914C187.368,310.257,176.983,302.978,172.235,290.251z M333.124,215.402
	c-5.11-7.51-13.674-12.391-23.389-12.391c-5.522,0-10,4.477-10,10s4.478,10,10,10c4.501,0,8.17,3.629,8.353,8.261
	c0.002,0.049,0.01,0.096,0.013,0.144c0.007,0.14,0.024,0.278,0.037,0.417c0.021,0.214,0.044,0.427,0.077,0.637
	c0.02,0.123,0.045,0.245,0.07,0.368c0.045,0.227,0.096,0.452,0.157,0.674c0.029,0.107,0.06,0.212,0.093,0.318
	c0.073,0.235,0.154,0.466,0.243,0.693c0.037,0.094,0.073,0.187,0.112,0.28c0.103,0.24,0.216,0.475,0.337,0.704
	c0.04,0.077,0.078,0.156,0.12,0.232c0.15,0.269,0.312,0.529,0.485,0.781c0.02,0.029,0.035,0.061,0.056,0.09
	c7.592,10.851,7.604,25.336,0.023,36.054c-5.898,8.355-15.509,13.509-25.965,14.021c-3.973-10.972-14.588-18.845-27.03-18.845
	c-5.522,0-10,4.477-10,10s4.478,10,10,10c4.178,0,7.674,2.853,8.511,6.642c-3.313,6.601-8.995,11.648-16.234,14.347
	c-6.45,1.853-16.668,0.018-24.424-2.303V78.156c4.079-1.895,8.589-2.892,13.28-2.914c14.12,0.506,24.506,7.786,29.254,20.512
	c1.612,4.322,5.972,6.973,10.55,6.435c14.69-1.749,26.726,4.876,33.034,18.183c2.636,6.279,2.847,13.317,0.794,19.759
	c-10.033-3.498-21.522-1.343-29.394,6.527c-3.905,3.905-3.905,10.237,0,14.143c3.906,3.905,10.236,3.905,14.143,0
	c3.186-3.185,8.764-2.987,12.181,0.432c0.085,0.085,0.178,0.158,0.265,0.24c0.106,0.099,0.212,0.197,0.323,0.292
	c0.179,0.153,0.363,0.295,0.55,0.433c0.096,0.071,0.19,0.144,0.288,0.212c0.24,0.165,0.487,0.315,0.738,0.456
	c0.057,0.032,0.111,0.068,0.168,0.099c0.332,0.179,0.67,0.34,1.016,0.478c12.497,5.037,20.571,16.656,20.571,29.602
	C342.53,201.623,339.08,209.551,333.124,215.402z"/>
<g>
</g>
<g>
</g>
<g>
</g>
<g>
</g>
<g>
</g>
<g>
</g>
<g>
</g>
<g>
</g>
<g>
</g>
<g>
</g>
<g>
</g>
<g>
</g>
<g>
</g>
<g>
</g>
<g>
</g>
</svg>
