<svg id="Layer_3" enable-background="new 0 0 64 64" height="512" viewBox="0 0 64 64" width="512" xmlns="http://www.w3.org/2000/svg"><g><g><path d="m2 56h60v6h-60z" fill="#956346"/></g><g><path d="m2 56h60v-15h-16l-.033-.014c-4.597-1.97-9.546-2.986-14.547-2.986-3.594 0-7.169.525-10.611 1.557l-4.809 1.443h-14z" fill="#d19e6d"/></g><g><path d="m34.878 38.168c-1.147-.108-2.301-.168-3.458-.168-3.594 0-7.169.525-10.612 1.557l-4.808 1.443h-14v15h41.144c-.878-6.826-3.851-12.995-8.266-17.832z" fill="#e2b88f"/></g><g><path d="m2 11h6v14h-6z" fill="#77ceee"/></g><g><path d="m21.393 18.464h21.213v7.071h-21.213z" fill="#77ceee" transform="matrix(.707 -.707 .707 .707 -6.184 29.071)"/></g><g><path d="m26 12h-9c-2.209 0-4-1.791-4-4h13z" fill="#d19e6d"/></g><g><path d="m62 23h-25c-1.657 0-3-1.343-3-3 0-1.657 1.343-3 3-3h6v-6l-3-3h-5l-5 6v6c0 1.657-1.343 3-3 3-1.657 0-3-1.343-3-3v-8l4-4h-16c-1.657 0-3-1.343-3-3 0-1.657 1.343-3 3-3h31l11 9h8z" fill="#e2b88f"/></g><g><path d="m61 8h2v18h-2z"/></g><g><path d="m62 24h-25c-2.206 0-4-1.794-4-4s1.794-4 4-4h5v-4.586l-2.414-2.414h-4.117l-4.469 5.362v5.638c0 2.206-1.794 4-4 4s-4-1.794-4-4v-8c0-.266.105-.52.293-.707l2.293-2.293h-13.586c-2.206 0-4-1.794-4-4s1.794-4 4-4h31c.23 0 .454.08.633.226l10.724 8.774h7.643v2h-8c-.23 0-.454-.08-.633-.226l-10.724-8.774h-30.643c-1.103 0-2 .897-2 2s.897 2 2 2h16c.404 0 .77.243.924.617.155.374.069.804-.217 1.09l-3.707 3.707v7.586c0 1.103.897 2 2 2s2-.897 2-2v-6c0-.234.082-.461.231-.641l5-6c.191-.227.472-.359.769-.359h5c.266 0 .52.105.707.293l3 3c.188.187.293.441.293.707v6c0 .553-.447 1-1 1h-6c-1.103 0-2 .897-2 2s.897 2 2 2h25z"/></g><g><path d="m24 13h-7c-2.757 0-5-2.243-5-5h2c0 1.654 1.346 3 3 3h7z"/></g><g><path d="m62 63h-60c-.553 0-1-.447-1-1v-6c0-.553.447-1 1-1h60c.553 0 1 .447 1 1v6c0 .553-.447 1-1 1zm-59-2h58v-4h-58z"/></g><g><path d="m62 42h-16c-.131 0-.26-.025-.381-.075-4.543-1.947-9.305-2.925-14.199-2.925-3.5 0-6.974.51-10.324 1.516l-4.809 1.442c-.093.027-.189.042-.287.042h-14v-2h13.854l4.668-1.4c3.536-1.062 7.203-1.6 10.898-1.6 5.109 0 10.082 1.009 14.783 3h15.797z"/></g><g><path d="m27 33c-.256 0-.512-.098-.707-.293l-5-5c-.391-.391-.391-1.023 0-1.414l4-4 1.414 1.414-3.293 3.293 3.586 3.586 8.293-8.293 1.414 1.414-9 9c-.195.195-.451.293-.707.293z"/></g><g><path d="m30.707 19.707-1.414-1.414 7-7c.391-.391 1.023-.391 1.414 0l5 5-1.414 1.414-4.293-4.293z"/></g><g><path d="m10.722 34.5h15.556v2h-15.556z" transform="matrix(.707 -.707 .707 .707 -19.684 23.479)"/></g><g><path d="m4 25h2v16h-2z"/></g><g><path d="m8 26h-6c-.553 0-1-.447-1-1v-14c0-.553.447-1 1-1h6c.553 0 1 .447 1 1v14c0 .553-.447 1-1 1zm-5-2h4v-12h-4z"/></g><g><path d="m46 27h2v14h-2z"/></g><g><path d="m49.841 33.5h14.318v2h-14.318z" transform="matrix(.419 -.908 .908 .419 1.797 71.808)"/></g><g><path d="m31.799 31.5h11.402v2h-11.402z" transform="matrix(.263 -.965 .965 .263 -3.71 60.145)"/></g></g></svg>