<?xml version="1.0" encoding="iso-8859-1"?>
<!-- Generator: Adobe Illustrator 19.0.0, SVG Export Plug-In . SVG Version: 6.00 Build 0)  -->
<svg version="1.1" id="Capa_1" xmlns="http://www.w3.org/2000/svg" xmlns:xlink="http://www.w3.org/1999/xlink" x="0px" y="0px"
	 viewBox="0 0 512 512" style="enable-background:new 0 0 512 512;" xml:space="preserve">
<g>
	<g>
		<path d="M384,295.385c21.717,0,39.385-17.668,39.385-39.385S405.717,216.615,384,216.615h-19.692v-85.334H384
			c21.717,0,39.385-17.668,39.385-39.385S405.717,52.513,384,52.513h-19.692V9.846c0-5.437-4.408-9.846-9.846-9.846H157.538
			c-5.438,0-9.846,4.409-9.846,9.846v42.666H128c-21.717,0-39.385,17.668-39.385,39.386c0,21.717,17.668,39.384,39.385,39.384
			h19.692v85.334H128c-21.717,0-39.385,17.668-39.385,39.385s17.668,39.385,39.385,39.385h19.692v85.333H128
			c-21.717,0-39.385,17.668-39.385,39.386c0,21.717,17.668,39.384,39.385,39.384h19.692v42.667c0,5.437,4.408,9.846,9.846,9.846
			h196.923c5.438,0,9.846-4.409,9.846-9.846v-42.667H384c21.717,0,39.385-17.668,39.385-39.385S405.717,380.717,384,380.717h-19.692
			v-85.333H384z M128,111.589c-10.858,0-19.692-8.834-19.692-19.692S117.142,72.205,128,72.205h29.538
			c5.438,0,9.846-4.409,9.846-9.846V19.692h177.231v32.82h-29.538c-5.438,0-9.846,4.409-9.846,9.846
			c0,5.437,4.408,9.846,9.846,9.846h39.385H384c10.858,0,19.692,8.835,19.692,19.693c0,10.857-8.834,19.691-19.692,19.691h-29.538
			c-5.438,0-9.846,4.409-9.846,9.846v42.666H167.385v-42.666c0-5.437-4.408-9.846-9.846-9.846H128z M384,400.41
			c10.858,0,19.692,8.835,19.692,19.693c0,10.857-8.834,19.691-19.692,19.691h-29.538c-5.438,0-9.846,4.409-9.846,9.846v42.667
			H167.385V449.64c0-5.437-4.408-9.846-9.846-9.846H128c-10.858,0-19.692-8.834-19.692-19.692S117.142,400.41,128,400.41h29.538
			c5.438,0,9.846-4.409,9.846-9.846v-42.666h177.231v42.666c0,5.437,4.408,9.846,9.846,9.846H384z M354.462,275.692
			c-5.438,0-9.846,4.409-9.846,9.846v42.666H167.385v-42.666c0-5.437-4.408-9.846-9.846-9.846H128
			c-10.858,0-19.692-8.834-19.692-19.692s8.834-19.692,19.692-19.692h29.538c5.438,0,9.846-4.409,9.846-9.846v-42.667h177.231
			v42.667c0,5.437,4.408,9.846,9.846,9.846H384c10.858,0,19.692,8.834,19.692,19.692s-8.834,19.692-19.692,19.692H354.462z"/>
	</g>
</g>
<g>
	<g>
		<path d="M236.308,111.589h-9.846c-10.858,0-19.692-8.834-19.692-19.692s8.834-19.692,19.692-19.692h9.846
			c5.438,0,9.846-4.409,9.846-9.846s-4.408-9.846-9.846-9.846h-9.846c-21.717,0-39.385,17.668-39.385,39.385
			s17.668,39.385,39.385,39.385h9.846c5.438,0,9.846-4.409,9.846-9.846C246.154,115.999,241.746,111.589,236.308,111.589z"/>
	</g>
</g>
<g>
	<g>
		<path d="M236.308,275.692h-9.846c-10.858,0-19.692-8.834-19.692-19.692s8.834-19.692,19.692-19.692h9.846
			c5.438,0,9.846-4.409,9.846-9.846c0-5.437-4.408-9.846-9.846-9.846h-9.846c-21.717,0-39.385,17.668-39.385,39.385
			s17.668,39.385,39.385,39.385h9.846c5.438,0,9.846-4.409,9.846-9.846C246.154,280.101,241.746,275.692,236.308,275.692z"/>
	</g>
</g>
<g>
	<g>
		<path d="M236.308,439.795h-9.846c-10.858,0-19.692-8.834-19.692-19.692c0-10.858,8.834-19.692,19.692-19.692h9.846
			c5.438,0,9.846-4.409,9.846-9.846c0-5.437-4.408-9.846-9.846-9.846h-9.846c-21.717,0-39.385,17.668-39.385,39.385
			s17.668,39.385,39.385,39.385h9.846c5.438,0,9.846-4.409,9.846-9.846C246.154,444.204,241.746,439.795,236.308,439.795z"/>
	</g>
</g>
<g>
	<g>
		<path d="M502.154,246.154h-49.231c-5.438,0-9.846,4.409-9.846,9.846s4.408,9.846,9.846,9.846h49.231
			c5.438,0,9.846-4.409,9.846-9.846S507.592,246.154,502.154,246.154z"/>
	</g>
</g>
<g>
	<g>
		<path d="M489.096,160.749c-3.845-3.844-10.08-3.844-13.924,0l-29.211,29.211c-3.845,3.845-3.845,10.08,0,13.925
			c1.923,1.922,4.443,2.884,6.962,2.884c2.52,0,5.04-0.962,6.962-2.884l29.211-29.211
			C492.941,170.83,492.941,164.595,489.096,160.749z"/>
	</g>
</g>
<g>
	<g>
		<path d="M489.096,337.325l-29.211-29.211c-3.845-3.843-10.08-3.844-13.924,0c-3.845,3.845-3.846,10.08,0,13.925l29.211,29.211
			c1.923,1.922,4.443,2.884,6.962,2.884s5.04-0.962,6.962-2.884C492.941,347.406,492.942,341.171,489.096,337.325z"/>
	</g>
</g>
<g>
	<g>
		<path d="M59.077,246.154H9.846C4.408,246.154,0,250.563,0,256s4.408,9.846,9.846,9.846h49.231c5.438,0,9.846-4.409,9.846-9.846
			S64.515,246.154,59.077,246.154z"/>
	</g>
</g>
<g>
	<g>
		<path d="M66.039,189.96l-29.21-29.21c-3.845-3.843-10.08-3.843-13.924,0c-3.845,3.845-3.846,10.08,0,13.925l29.211,29.211
			c1.922,1.921,4.441,2.883,6.961,2.883c2.52,0,5.04-0.962,6.962-2.884C69.884,200.04,69.885,193.806,66.039,189.96z"/>
	</g>
</g>
<g>
	<g>
		<path d="M66.039,308.115c-3.845-3.845-10.079-3.845-13.924,0l-29.211,29.211c-3.845,3.845-3.845,10.08,0,13.925
			c1.923,1.922,4.443,2.884,6.962,2.884s5.04-0.962,6.962-2.884l29.211-29.211C69.884,318.195,69.884,311.961,66.039,308.115z"/>
	</g>
</g>
<g>
	<g>
		<path d="M292.5,55.394c-1.831-1.831-4.372-2.885-6.961-2.885s-5.13,1.053-6.961,2.885c-1.831,1.831-2.885,4.372-2.885,6.961
			c0,2.599,1.054,5.13,2.885,6.96c1.831,1.842,4.372,2.886,6.961,2.886s5.13-1.045,6.961-2.886c1.831-1.83,2.885-4.362,2.885-6.96
			C295.385,59.766,294.331,57.226,292.5,55.394z"/>
	</g>
</g>
<g>
</g>
<g>
</g>
<g>
</g>
<g>
</g>
<g>
</g>
<g>
</g>
<g>
</g>
<g>
</g>
<g>
</g>
<g>
</g>
<g>
</g>
<g>
</g>
<g>
</g>
<g>
</g>
<g>
</g>
</svg>
