<?xml version="1.0" encoding="iso-8859-1"?>
<!-- Generator: Adobe Illustrator 19.0.0, SVG Export Plug-In . SVG Version: 6.00 Build 0)  -->
<svg version="1.1" id="Capa_1" xmlns="http://www.w3.org/2000/svg" xmlns:xlink="http://www.w3.org/1999/xlink" x="0px" y="0px"
	 viewBox="0 0 512 512" style="enable-background:new 0 0 512 512;" xml:space="preserve">
<rect x="10" y="100" style="fill:#63CE68;" width="492" height="312"/>
<rect x="64" y="100" style="fill:#CDEFF1;" width="384" height="312"/>
<circle style="fill:#FEB756;" cx="163.99" cy="276" r="64"/>
<circle style="fill:#F25353;" cx="163.99" cy="276" r="24"/>
<circle style="fill:#BEF7F0;" cx="348.01" cy="276" r="64"/>
<g>
	<circle style="fill:#44C5CB;" cx="348.01" cy="276" r="24"/>
	<rect x="99.99" y="133" style="fill:#44C5CB;" width="72" height="34"/>
</g>
<rect x="220" y="133" style="fill:#F25353;" width="72" height="34"/>
<rect x="340.01" y="133" style="fill:#FE947C;" width="72" height="34"/>
<circle style="fill:#63CE68;" cx="256" cy="356.02" r="24"/>
<path d="M502,90H10c-5.523,0-10,4.478-10,10v312c0,5.522,4.477,10,10,10h492c5.523,0,10-4.478,10-10V100
	C512,94.478,507.523,90,502,90z M492,402h-34V187.054c0-5.522-4.477-10-10-10s-10,4.478-10,10V402H20V110h34v224.02
	c0,5.522,4.477,10,10,10s10-4.478,10-10V110h418V402z"/>
<path d="M64,366c-2.63,0-5.21,1.069-7.07,2.93C55.07,370.79,54,373.37,54,376s1.07,5.21,2.93,7.069C58.79,384.93,61.37,386,64,386
	c2.63,0,5.21-1.07,7.07-2.931C72.93,381.21,74,378.63,74,376s-1.07-5.21-2.93-7.07S66.63,366,64,366z"/>
<path d="M163.986,202c-40.804,0-74,33.196-74,74s33.196,74,74,74s74-33.196,74-74S204.79,202,163.986,202z M163.986,330
	c-29.776,0-54-24.225-54-54s24.224-54,54-54s54,24.225,54,54S193.762,330,163.986,330z"/>
<path d="M163.986,242c-18.748,0-34,15.252-34,34s15.252,34,34,34s34-15.252,34-34S182.733,242,163.986,242z M163.986,290
	c-7.72,0-14-6.28-14-14s6.28-14,14-14s14,6.28,14,14S171.706,290,163.986,290z"/>
<path d="M348.014,202c-40.804,0-74,33.196-74,74s33.196,74,74,74s74-33.196,74-74S388.818,202,348.014,202z M348.014,330
	c-29.776,0-54-24.225-54-54s24.224-54,54-54s54,24.225,54,54S377.79,330,348.014,330z"/>
<path d="M348.014,242c-18.748,0-34,15.252-34,34s15.252,34,34,34s34-15.252,34-34S366.762,242,348.014,242z M348.014,290
	c-7.72,0-14-6.28-14-14s6.28-14,14-14s14,6.28,14,14S355.734,290,348.014,290z"/>
<path d="M99.986,177h72c5.523,0,10-4.478,10-10v-34c0-5.522-4.477-10-10-10h-72c-5.523,0-10,4.478-10,10v34
	C89.986,172.522,94.463,177,99.986,177z M109.986,143h52v14h-52C109.986,157,109.986,143,109.986,143z"/>
<path d="M220,177h72c5.523,0,10-4.478,10-10v-34c0-5.522-4.477-10-10-10h-72c-5.523,0-10,4.478-10,10v34
	C210,172.522,214.477,177,220,177z M230,143h52v14h-52V143z"/>
<path d="M340.014,177h72c5.523,0,10-4.478,10-10v-34c0-5.522-4.477-10-10-10h-72c-5.523,0-10,4.478-10,10v34
	C330.014,172.522,334.491,177,340.014,177z M350.014,143h52v14h-52V143z"/>
<path d="M256,322.017c-18.748,0-34,15.252-34,34s15.252,34,34,34s34-15.252,34-34S274.748,322.017,256,322.017z M256,370.017
	c-7.72,0-14-6.28-14-14s6.28-14,14-14s14,6.28,14,14S263.72,370.017,256,370.017z"/>
<path d="M475,266c2.63,0,5.21-1.07,7.07-2.931c1.86-1.859,2.93-4.439,2.93-7.069s-1.07-5.21-2.93-7.07S477.63,246,475,246
	s-5.21,1.069-7.07,2.93c-1.86,1.86-2.93,4.44-2.93,7.07s1.07,5.21,2.93,7.069C469.79,264.93,472.37,266,475,266z"/>
<path d="M448,156.01c2.63,0,5.21-1.07,7.07-2.93c1.86-1.86,2.93-4.44,2.93-7.07s-1.07-5.21-2.93-7.07
	c-1.86-1.859-4.44-2.93-7.07-2.93s-5.21,1.07-7.07,2.93c-1.86,1.86-2.93,4.44-2.93,7.07s1.07,5.21,2.93,7.07
	C442.79,154.939,445.37,156.01,448,156.01z"/>
<g>
</g>
<g>
</g>
<g>
</g>
<g>
</g>
<g>
</g>
<g>
</g>
<g>
</g>
<g>
</g>
<g>
</g>
<g>
</g>
<g>
</g>
<g>
</g>
<g>
</g>
<g>
</g>
<g>
</g>
</svg>
