<svg height="511pt" viewBox="1 -46 511.999 511" width="511pt" xmlns="http://www.w3.org/2000/svg"><path d="m465.335938 326.3125h-127.816407v-22.808594h49.824219c25.363281 0 46-20.636718 46-46 0-25.367187-20.636719-46.003906-46-46.003906h-32.121094l-68.683594-94.269531-.007812.011719c-4.144531-6.265626-9.316406-11.792969-15.273438-16.339844 11.046876-10.625 17.9375-25.539063 17.9375-42.039063 0-32.183593-26.179687-58.363281-58.363281-58.363281-32.179687 0-58.363281 26.179688-58.363281 58.363281 0 16.503907 6.894531 31.414063 17.945312 42.039063-15.996093 12.210937-26.34375 31.460937-26.34375 53.085937l.003907 172.324219h-44.695313c-3.996094 0-7.871094.503906-11.574218 1.453125-4.875-25.03125-26.957032-43.984375-53.394532-43.984375-30.003906 0-54.410156 24.410156-54.410156 54.410156s24.40625 54.40625 54.40625 54.40625c7.417969 0 14.492188-1.496094 20.9375-4.195312 6.386719 18.171875 23.707031 31.238281 44.03125 31.238281h345.960938c25.730468 0 46.664062-20.933594 46.664062-46.664063 0-25.730468-20.933594-46.664062-46.664062-46.664062zm-77.992188-84.8125c8.820312 0 16 7.179688 16 16.003906 0 8.824219-7.179688 16-16 16h-79.824219v52.808594h-33.851562v-71.1875c0-7.511719 6.109375-13.625 13.621093-13.625zm-69.421875-30h-32.132813l-38.628906-54.109375-24.421875 17.429687 34.675781 48.5625c-7.785156 7.328126-12.878906 17.476563-13.636718 28.796876h-49.707032v-98.1875c0-20.269532 16.488282-36.761719 36.757813-36.761719 12.382813 0 23.351563 6.152343 30.023437 15.5625zm-87.089844-181c15.640625 0 28.363281 12.726562 28.363281 28.367188 0 15.636718-12.722656 28.359374-28.363281 28.359374-15.636719 0-28.363281-12.722656-28.363281-28.359374 0-15.640626 12.722656-28.367188 28.363281-28.367188zm-176.425781 332.097656c-13.457031 0-24.40625-10.949218-24.40625-24.40625 0-13.460937 10.949219-24.410156 24.40625-24.410156 13.460938 0 24.410156 10.949219 24.410156 24.410156 0 13.457032-10.949218 24.40625-24.410156 24.40625zm183.945312 27.042969h-118.972656c-9.191406 0-16.664062-7.476563-16.664062-16.664063 0-9.191406 7.472656-16.664062 16.664062-16.664062h118.972656zm-44.28125-63.328125v-44.132812h49.597657v44.132812zm271.265626 63.328125h-196.984376v-33.328125h196.984376c9.1875 0 16.664062 7.476562 16.664062 16.664062s-7.476562 16.664063-16.664062 16.664063zm0 0"/></svg>