<?xml version="1.0" encoding="iso-8859-1"?>
<!-- Generator: Adobe Illustrator 19.0.0, SVG Export Plug-In . SVG Version: 6.00 Build 0)  -->
<svg version="1.1" id="Capa_1" xmlns="http://www.w3.org/2000/svg" xmlns:xlink="http://www.w3.org/1999/xlink" x="0px" y="0px"
	 viewBox="0 0 512 512" style="enable-background:new 0 0 512 512;" xml:space="preserve">
<g>
	<g>
		<path d="M462.769,462.769H304.425c3.633-6.06,5.729-13.145,5.729-20.709v-66.14l1.426-3.844l0.245,1.262
			c0.208,1.073,0.593,2.104,1.139,3.05l33.953,58.81c11.139,19.293,35.897,25.926,55.19,14.788
			c9.346-5.395,16.031-14.108,18.824-24.533c2.793-10.424,1.36-21.312-4.036-30.657l-33.069-57.279l-9.143-53.743V145.114
			c0-18.211-10.273-34.018-25.614-41.699c7.453-10.893,11.548-23.869,11.548-37.305C360.615,29.657,330.959,0,294.505,0
			c-36.452,0-66.11,29.657-66.11,66.11c0,22.881,11.535,43.546,30.228,55.549l-45.277,54.435l-47.677,33.692
			c-6.733,4.759-11.21,11.854-12.607,19.98c-0.953,5.545-0.391,11.117,1.573,16.236l-31.559-15.78v-13.606
			c0-4.239-2.712-8.001-6.733-9.341l-59.077-19.692c-3.002-0.998-6.304-0.496-8.87,1.354c-2.568,1.851-4.089,4.822-4.089,7.987
			v39.385c0,4.239,2.712,8.001,6.733,9.341l2.679,0.893l-9.028,216.654c-11.412,2.138-20.076,12.167-20.076,24.189
			c0,13.573,11.042,24.615,24.615,24.615h413.538c13.573,0,24.615-11.042,24.615-24.615
			C487.385,473.812,476.342,462.769,462.769,462.769z M172.471,233.101c0.506-2.941,2.127-5.511,4.564-7.233l46.787-33.063
			c1.314-0.608,2.491-1.505,3.435-2.64l51.121-61.464c0.292-0.352,0.56-0.724,0.801-1.114c0.555-0.897,1.228-1.796,1.998-2.673
			c0.031-0.034,0.054-0.074,0.085-0.108c3.771-4.228,9.165-6.653,14.825-6.653c5.438,0,9.846-4.409,9.846-9.846
			c0-5.437-4.408-9.846-9.846-9.846c-8.793,0-17.256,2.942-24.119,8.224c-14.678-8.11-23.881-23.456-23.881-40.576
			c0-25.594,20.823-46.418,46.418-46.418c25.595,0,46.418,20.823,46.418,46.418c0,13.383-5.794,26.123-15.897,34.953
			c-2.963,2.59-4.099,6.695-2.89,10.44c1.21,3.745,4.533,6.41,8.451,6.777c13.912,1.305,24.402,12.84,24.402,26.835v139.492
			c0,0.554,0.046,1.106,0.14,1.651l9.578,56.305c0.196,1.152,0.596,2.261,1.18,3.272l33.953,58.809
			c2.766,4.79,3.5,10.371,2.069,15.714c-1.432,5.344-4.859,9.81-9.649,12.575c-9.89,5.708-22.58,2.309-28.289-7.58l-33.127-57.379
			l-6.089-31.425l13.995-37.743c1.891-5.098-0.71-10.765-5.808-12.655c-5.098-1.886-10.765,0.71-12.655,5.808l-14.955,40.331
			l-14.255,38.442c-0.407,1.095-0.614,2.255-0.614,3.423v67.906c0,11.42-9.29,20.709-20.709,20.709
			c-11.42,0-20.709-9.291-20.709-20.709v-66.255l26.638-77.213c0.356-1.034,0.539-2.118,0.539-3.212V197.04l21.768-26.171
			c3.478-4.181,2.908-10.389-1.273-13.866c-4.181-3.477-10.389-2.909-13.866,1.274l-24.044,28.907l-13.946,16.767l-7.182,6.429
			l-47.744,33.739c-1.854,1.312-3.974,1.971-6.09,2.035h-0.388c-3.492-0.015-6.93-1.649-9.096-4.712
			C172.636,239.005,171.965,236.042,172.471,233.101z M113.23,265.846c2.041,0,4.061-0.635,5.758-1.859
			c2.567-1.851,4.089-4.822,4.089-7.987v-3.761l25.135,12.568c1.368,0.683,2.875,1.04,4.403,1.04h78.769
			c5.438,0,9.846-4.409,9.846-9.846s-4.408-9.846-9.846-9.846h-10.211l28.327-20.018c0.308-0.219,0.604-0.453,0.884-0.705
			l6.141-5.497v73.796l-26.638,77.213c-0.356,1.034-0.539,2.118-0.539,3.212v67.906c0,7.566,2.095,14.649,5.729,20.709H93.957
			l8.335-200.036l7.826,2.608C111.134,265.68,112.185,265.846,113.23,265.846z M64,210.584l39.385,13.129v18.627l-7.27-2.423h-0.001
			l-3.889-1.296L64,229.211V210.584z M82.852,256.253l-8.605,206.516h-9.829l8.739-209.748L82.852,256.253z M462.769,492.308H49.231
			c-2.715,0-4.923-2.208-4.923-4.923c0-2.715,2.208-4.923,4.923-4.923h413.538c2.715,0,4.923,2.208,4.923,4.923
			C467.692,490.099,465.484,492.308,462.769,492.308z"/>
	</g>
</g>
<g>
</g>
<g>
</g>
<g>
</g>
<g>
</g>
<g>
</g>
<g>
</g>
<g>
</g>
<g>
</g>
<g>
</g>
<g>
</g>
<g>
</g>
<g>
</g>
<g>
</g>
<g>
</g>
<g>
</g>
</svg>
