<svg height="429pt" viewBox="0 1 429 429.83" width="429pt" xmlns="http://www.w3.org/2000/svg"><path d="m408.914062 293.832031v-286.664062h-143.332031v272.332031l-107.5 71.667969-93.167969 14.332031v57.335938h315.335938c23.746094 0 43-19.253907 43-43 0-1.589844-.089844-3.175782-.265625-4.75zm0 0" fill="#ffd782"/><path d="m36.25 365.5h28.664062v57.332031h-28.664062zm0 0" fill="#aabece"/><path d="m36.25 365.5v57.332031h-28.667969v-28.664062c0-15.832031 12.835938-28.667969 28.667969-28.667969zm0 0" fill="#cfdfe8"/><path d="m265.582031 279.5 143.332031 14.332031v-71.664062h-143.332031zm0 0" fill="#aabece"/><path d="m265.582031 150.5h143.332031v71.664062h-143.332031zm0 0" fill="#cfdfe8"/><path d="m337.25 286.667969 14.332031 136.164062h-71.667969l-14.332031-143.332031zm0 0" fill="#cfdfe8"/><path d="m279.914062 422.832031h-57.332031l-21.5-100.332031 64.5-43zm0 0" fill="#aabece"/><path d="m165.242188 315.332031c-1.675782 0-3.296876-.585937-4.585938-1.65625l-43-35.835937c-3.039062-2.535156-3.449219-7.054688-.914062-10.09375 1.628906-1.957032 4.171874-2.898438 6.679687-2.480469l34.660156 5.773437v-41.707031c-.003906-2.105469.925781-4.105469 2.535157-5.464843 1.609374-1.355469 3.730468-1.9375 5.808593-1.601563l34.65625 5.773437v-34.539062c.003907-3.960938 3.214844-7.167969 7.175781-7.167969 2.171876.003907 4.230469.992188 5.589844 2.6875l28.667969 35.835938c2.464844 3.09375 1.957031 7.605469-1.140625 10.074219-3.089844 2.460937-7.585938 1.960937-10.058594-1.117188l-15.902344-19.882812v22.570312c0 3.960938-3.210937 7.167969-7.167968 7.167969-.394532 0-.785156-.035157-1.171875-.097657l-34.660157-5.773437v41.703125c0 3.960938-3.210937 7.167969-7.167968 7.167969-.394532 0-.785156-.035157-1.171875-.097657l-16.929688-2.820312 22.695313 18.910156c3.042968 2.53125 3.453125 7.050782.921875 10.09375-1.363281 1.636719-3.386719 2.582032-5.519531 2.578125zm0 0" fill="#e9686a"/><path d="m7.582031 430h372.667969c27.691406.007812 50.144531-22.433594 50.152344-50.125.003906-2.007812-.117188-4.015625-.359375-6.011719l-13.960938-80.644531v-286.050781c0-3.957031-3.203125-7.16406275-7.160156-7.167969-.003906 0-.003906 0-.007813 0h-143.332031c-3.957031-.00390625-7.164062 3.203125-7.167969 7.160156v.007813 268.496093l-102.992187 68.65625-91.050781 14.011719h-28.121094c-19.78125.023438-35.8125 16.054688-35.835938 35.835938v28.664062c0 3.957031 3.203126 7.164063 7.160157 7.167969zm220.796875-14.332031-19.269531-89.90625 50.527344-33.683594 12.355469 123.589844zm44.371094-258h129v57.332031h-129zm129 128.242187-129-12.898437v-43.679688h129zm-115.347656 129.757813-12.816406-128.164063 57.148437 5.714844 12.890625 122.449219zm120.546875-11.941407c-6.800781 7.59375-16.507813 11.933594-26.699219 11.941407h-22.21875l-12.734375-120.992188 57.484375 5.746094 13.078125 75.457031c1.121094 10.125-2.117187 20.253906-8.910156 27.847656zm-5.199219-389.394531v129h-129v-129zm-242.578125 343.917969c1.035156-.160156 2.015625-.542969 2.886719-1.121094l34.226562-22.816406 17.433594 81.355469h-141.636719v-44.015625zm-101.421875 57.417969h-14.335938v-43h14.335938zm-43-21.5c.007812-9.109375 5.75-17.226563 14.332031-20.277344v41.777344h-14.332031zm0 0"/><path d="m169.882812 284.964844c1.609376-1.359375 2.535157-3.359375 2.53125-5.464844v-41.707031l34.660157 5.773437c3.90625.652344 7.597656-1.988281 8.246093-5.894531.0625-.386719.09375-.777344.09375-1.171875v-22.570312l15.902344 19.882812c2.480469 3.085938 6.992188 3.578125 10.082032 1.097656 3.078124-2.472656 3.578124-6.96875 1.117187-10.058594l-28.667969-35.832031c-2.476562-3.089843-6.988281-3.589843-10.078125-1.113281-1.699219 1.359375-2.683593 3.417969-2.6875 5.59375v34.539062l-34.65625-5.777343c-2.078125-.335938-4.199219.25-5.808593 1.605469-1.609376 1.359374-2.539063 3.359374-2.535157 5.464843v41.707031l-34.660156-5.777343c-3.902344-.648438-7.597656 1.988281-8.246094 5.894531-.417969 2.511719.527344 5.054688 2.480469 6.683594l43 35.832031c3.042969 2.535156 7.5625 2.125 10.097656-.917969 2.539063-3.039062 2.125-7.5625-.914062-10.097656l-22.699219-18.910156 16.929687 2.820312c2.082032.34375 4.203126-.242187 5.8125-1.601562zm0 0"/></svg>