<svg id="Capa_1" enable-background="new 0 0 512 512" height="512" viewBox="0 0 512 512" width="512" xmlns="http://www.w3.org/2000/svg"><g><g><path d="m174.177 99.425h330.323v222.236h-330.323z" fill="#f4a86d"/></g><g><path d="m174.177 321.661h192.941v-171.728c0-10.843-4.175-26.759-24.066-41.01-4.698-3.366-10.136-6.537-16.281-9.498h-152.594z" fill="#e89858"/></g><g><ellipse cx="174.177" cy="149.933" fill="#fcd0a3" rx="166.677" ry="50.508"/></g><g><path d="m322.724 127.003c1.293 2.535 1.968 5.133 1.968 7.778 0 27.895-74.624 50.508-166.677 50.508-64.808 0-120.975-11.209-148.547-27.578 12.345 24.202 81.385 42.73 164.709 42.73 92.053 0 166.677-22.613 166.677-50.508 0-8.256-6.54-16.049-18.13-22.93z" fill="#ffb983"/></g><g><ellipse cx="174.177" cy="149.933" fill="#595959" rx="80.813" ry="20.203"/></g><g><path d="m7.5 362.067c0 27.895 74.624 50.508 166.677 50.508s166.677-22.613 166.677-50.508v-212.134c0 27.895-74.624 50.508-166.677 50.508s-166.677-22.613-166.677-50.508z" fill="#fcd0a3"/></g><g><path d="m306.508 180.64v181.427c0 26.138-65.519 47.638-149.504 50.243 5.646.175 11.374.265 17.173.265 92.053 0 166.677-22.613 166.677-50.508v-212.134c0 11.553-12.809 22.197-34.346 30.707z" fill="#ffb983"/></g><g><path d="m504.5 91.925h-127.204c-4.142 0-7.5 3.358-7.5 7.5s3.358 7.5 7.5 7.5h119.704v207.236h-27.129c-4.142 0-7.5 3.358-7.5 7.5s3.358 7.5 7.5 7.5h34.629c4.142 0 7.5-3.358 7.5-7.5v-222.236c0-4.142-3.358-7.5-7.5-7.5z"/><path d="m434.875 314.161h-86.521v-164.228c0-17.327-18.723-32.159-54.144-42.893-.129-.039-.262-.077-.391-.116h48.467c4.142 0 7.5-3.358 7.5-7.5s-3.358-7.5-7.5-7.5h-168.109c-45.238 0-87.867 5.368-120.033 15.116-35.421 10.734-54.144 25.566-54.144 42.893v105.022c0 4.142 3.358 7.5 7.5 7.5s7.5-3.358 7.5-7.5v-80.18c9.081 6.837 22.195 12.913 39.144 18.049 32.167 9.748 74.795 15.116 120.033 15.116s87.866-5.368 120.033-15.116c16.949-5.136 30.063-11.212 39.144-18.049v187.291c0 17.959-60.556 43.008-159.177 43.008s-159.177-25.048-159.177-43.007v-72.103c0-4.142-3.358-7.5-7.5-7.5s-7.5 3.358-7.5 7.5v72.103c0 17.327 18.723 32.159 54.144 42.893 32.167 9.748 74.795 15.116 120.033 15.116s87.867-5.368 120.033-15.116c35.421-10.734 54.144-25.566 54.144-42.893v-32.906h86.521c4.142 0 7.5-3.358 7.5-7.5s-3.358-7.5-7.5-7.5zm-260.698-121.22c-98.621 0-159.177-25.049-159.177-43.008s60.556-43.008 159.177-43.008 159.177 25.049 159.177 43.008-60.557 43.008-159.177 43.008z"/><path d="m174.177 122.229c-9.039 0-88.313.777-88.313 27.704 0 26.926 79.274 27.703 88.313 27.703s88.313-.777 88.313-27.703-79.274-27.704-88.313-27.704zm51.551 35.596c-14.203 3.103-32.511 4.812-51.551 4.812s-37.348-1.709-51.551-4.812c-13.233-2.891-19.147-6.159-21.165-7.892 2.018-1.733 7.931-5.001 21.164-7.892 14.203-3.103 32.511-4.812 51.552-4.812s37.349 1.709 51.552 4.812c13.233 2.891 19.146 6.159 21.164 7.892-2.018 1.733-7.932 5.001-21.165 7.892z"/></g></g></svg>