<svg height="414pt" viewBox="-7 0 414 414.15394" width="414pt" xmlns="http://www.w3.org/2000/svg"><path d="m161.902344 86.128906-19.414063 11.722656-30.402343-3.722656-14.183594-8 2.730468-8.191406c3.460938-10.378906 4.328126-21.445312 2.535157-32.238281-1.3125-7.863281.898437-15.902344 6.050781-21.980469 5.148438-6.082031 12.714844-9.589844 20.683594-9.589844s15.535156 3.507813 20.6875 9.589844c5.148437 6.078125 7.363281 14.117188 6.050781 21.980469-1.796875 10.792969-.925781 21.859375 2.535156 32.238281zm0 0" fill="#3b869e"/><path d="m355.023438 250.128906-11.785157 23.554688c-1.355469 2.703125-4.125 4.414062-7.152343 4.414062-3.027344 0-5.792969-1.710937-7.148438-4.414062l-11.785156-23.554688c-3.324219-6.65625-5.058594-13.996094-5.066406-21.4375v-124.671875h48v124.671875c-.003907 7.441406-1.738282 14.78125-5.0625 21.4375zm0 0" fill="#e4e4e2"/><path d="m368.085938 80.019531-18.863282 11.773438-21.136718-3.773438-24-8 2.730468-8.195312c3.460938-10.378907 4.332032-21.445313 2.535156-32.238281-1.3125-7.859376.902344-15.898438 6.050782-21.980469 5.152344-6.082031 12.714844-9.589844 20.683594-9.585938 7.972656-.003906 15.535156 3.503907 20.6875 9.585938 5.148437 6.082031 7.363281 14.121093 6.050781 21.980469-1.796875 10.792968-.925781 21.859374 2.535156 32.238281zm0 0" fill="#de8021"/><path d="m251.527344 304.136719-2.640625-42.238281c-2.5-40.054688-25.023438-76.148438-59.902344-96-16.488281-9.039063-26.835937-26.25-27.082031-45.046876v-2.722656h-64v2.679688c-.246094 18.800781-10.59375 36.011718-27.078125 45.050781-34.878907 19.851563-57.402344 55.945313-59.90625 96l-2.636719 42.238281c-1.667969 26.457032 7.679688 52.421875 25.824219 71.746094 18.148437 19.324219 43.472656 30.285156 69.980469 30.285156h51.617187c26.503906.003906 51.828125-10.949218 69.976563-30.265625 18.148437-19.316406 27.503906-45.273437 25.847656-71.726562zm0 0" fill="#ebebeb"/><path d="m10.917969 261.898438-2.636719 42.238281c-.808594 12.894531 1.003906 25.820312 5.328125 37.992187h232.589844c4.324219-12.171875 6.136719-25.097656 5.328125-37.992187l-2.640625-42.238281c-1.878907-30.464844-15.425781-59.03125-37.824219-79.769532h-162.320312c-22.394532 20.738282-35.941407 49.304688-37.824219 79.769532zm0 0" fill="#fbb540"/><path d="m147.023438 256.265625-11.785157 23.550781c-1.355469 2.707032-4.125 4.417969-7.152343 4.417969-3.027344 0-5.792969-1.710937-7.148438-4.417969l-11.785156-23.550781c-3.328125-6.664063-5.0625-14.011719-5.066406-21.464844v-124.671875h48v124.671875c0 7.453125-1.734376 14.800781-5.0625 21.464844zm0 0" fill="#dededc"/><path d="m120.9375 279.816406c1.355469 2.707032 4.121094 4.417969 7.148438 4.417969 3.027343 0 5.796874-1.710937 7.152343-4.417969l11.785157-23.550781c3.328124-6.664063 5.0625-14.011719 5.0625-21.464844v-52.671875h-48v52.671875c.003906 7.453125 1.738281 14.800781 5.066406 21.464844zm0 0" fill="#ea9d2d"/><path d="m13.609375 342.128906c13.554687 38.347656 49.804687 63.988282 90.476563 64h51.632812c40.671875-.011718 76.921875-25.652344 90.480469-64zm0 0" fill="#dededc"/><path d="m89.902344 86.128906h80c8.835937 0 16 7.164063 16 16 0 8.835938-7.164063 16-16 16h-80c-8.835938 0-16-7.164062-16-16 0-8.835937 7.164062-16 16-16zm0 0" fill="#69b0bb"/><path d="m296.085938 80.019531h80c8.839843 0 16 7.160157 16 16 0 8.835938-7.160157 16-16 16h-80c-8.835938 0-16-7.164062-16-16 0-8.839843 7.164062-16 16-16zm0 0" fill="#fd9226"/><path d="m336.085938 406.128906c-17.671876 0-32-14.324218-32-32 .003906-10.429687 3.089843-20.628906 8.875-29.3125l23.125-34.6875 23.128906 34.6875c5.785156 8.683594 8.871094 18.882813 8.871094 29.3125 0 17.675782-14.324219 32-32 32zm0 0" fill="#f3af3e"/><path d="m40.085938 278.128906c-4.417969 0-8-3.582031-8-8v-6.085937c-.011719-13.261719 3.914062-26.230469 11.28125-37.257813l6.066406-9.09375c2.449218-3.675781 7.417968-4.667968 11.09375-2.21875 3.675781 2.453125 4.667968 7.421875 2.214844 11.097656l-6.0625 9.085938c-5.609376 8.402344-8.601563 18.28125-8.59375 28.386719v6.085937c0 4.417969-3.578126 8-8 8zm0 0" fill="#ffe5b9"/><path d="m40.085938 318.128906c-4.417969 0-8-3.582031-8-8v-8c0-4.417968 3.582031-8 8-8 4.421874 0 8 3.582032 8 8v8c0 4.417969-3.578126 8-8 8zm0 0" fill="#ffe5b9"/><g fill="#ebebeb"><path d="m120.085938 366.128906h16v16h-16zm0 0"/><path d="m152.085938 366.128906h16v16h-16zm0 0"/><path d="m184.085938 366.128906v16h35c5.410156-4.773437 10.269531-10.140625 14.480468-16zm0 0"/></g><path d="m312.085938 112.019531h48v19.621094h-48zm0 0" fill="#dbdbdb"/><path d="m104.085938 118.128906h48v13.511719h-48zm0 0" fill="#cbcbcb"/><path d="m256.886719 261.394531c-.230469-3.632812-.664063-7.199219-1.191407-10.769531-.128906-.863281-.261718-1.71875-.40625-2.574219-.59375-3.519531-1.289062-7.007812-2.167968-10.402343-.058594-.222657-.128906-.4375-.195313-.65625-.863281-3.300782-1.886719-6.542969-3.007812-9.742188-.253907-.710938-.496094-1.417969-.757813-2.128906-1.265625-3.398438-2.640625-6.742188-4.175781-10.007813l-.214844-.414062c-1.601562-3.3125-3.3125-6.527344-5.160156-9.679688-.1875-.304687-.363281-.617187-.546875-.929687-11.230469-18.769532-27.117188-34.324219-46.117188-45.160156-12.328124-6.722657-20.742187-18.890626-22.683593-32.800782 13.257812-.097656 23.921875-10.925781 23.820312-24.179687-.097656-13.253907-10.921875-23.917969-24.179687-23.820313h-2.230469l-.914063-2.726562c-3.035156-9.144532-3.800781-18.886719-2.222656-28.390625 2.296875-13.75-3.757812-27.554688-15.425781-35.179688s-26.742187-7.625-38.410156 0c-11.671875 7.625-17.722657 21.429688-15.425781 35.179688 1.578124 9.503906.8125 19.253906-2.226563 28.398437l-.910156 2.71875h-2.234375c-13.253906-.101562-24.082032 10.5625-24.183594 23.816406-.101562 13.253907 10.5625 24.082032 23.816406 24.183594-1.9375 13.910156-10.351562 26.078125-22.679687 32.800782-18.996094 10.835937-34.878907 26.382812-46.113281 45.144531l-.527344.902343c-1.855469 3.160157-3.597656 6.402344-5.175782 9.714844-.0625.125-.136718.253906-.199218.390625-1.542969 3.273438-2.921875 6.625-4.183594 10.023438-.265625.703125-.503906 1.410156-.753906 2.121093-1.125 3.199219-2.160156 6.457032-3.023438 9.757813-.054687.21875-.128906.425781-.183594.640625-.878906 3.425781-1.601562 6.921875-2.167968 10.402344-.152344.855468-.28125 1.710937-.40625 2.574218-.53125 3.558594-.960938 7.136719-1.195313 10.769532l-2.636719 42.246094c-1.234374 19.242187 2.960938 38.441406 12.101563 55.417968.234375.445313.480469.886719.730469 1.328125 1.117187 2.023438 2.277344 4 3.542968 5.976563.351563.542968.734376 1.054687 1.09375 1.597656 2.011719 2.980469 4.175782 5.859375 6.480469 8.617188.914063 1.09375 1.808594 2.207031 2.769531 3.253906.449219.496094.800782 1.035156 1.28125 1.511718.75.800782 1.597657 1.488282 2.335938 2.257813.910156.902344 1.832031 1.792969 2.773438 2.664063 1.433593 1.335937 2.882812 2.65625 4.378906 3.902343.160156.136719.34375.265625.503906.402344 5.945312 4.890625 12.417969 9.097656 19.300781 12.542969l.128907.0625c6.527343 3.261718 13.386718 5.816406 20.457031 7.617187.800781.207031 1.601562.441407 2.398437.632813 1.695313.382812 3.394532.710937 5.113282 1.015625 1.71875.304687 3.335937.542969 5.023437.800781 1.289063.160156 2.570313.34375 3.863281.457031 3.136719.285157 6.289063.476563 9.480469.476563h51.625c3.199219 0 6.34375-.191406 9.472656-.476563 1.3125-.113281 2.597657-.296875 3.902344-.457031 1.671875-.226562 3.328125-.472656 4.984375-.800781s3.441406-.632813 5.136719-1.015625c.800781-.191406 1.601562-.417969 2.398437-.617188 7.101563-1.804687 13.984375-4.363281 20.539063-7.640625l.085937-.046875c6.898438-3.449218 13.382813-7.664062 19.335938-12.566406.160156-.128906.328125-.25.488281-.386719 1.496094-1.246093 2.945313-2.566406 4.375-3.902343.945313-.871094 1.867187-1.757813 2.769531-2.664063.800782-.800781 1.597656-1.457031 2.34375-2.257813.457032-.488281.800782-1.015624 1.289063-1.511718.941406-1.046875 1.839843-2.152344 2.75-3.238282 2.320312-2.785156 4.484375-5.660156 6.496093-8.632812.351563-.527344.738282-1.039062 1.089844-1.597656 1.261719-1.953125 2.398438-3.953125 3.550782-5.976563.238281-.441406.488281-.882812.726562-1.328125 9.136719-16.976562 13.328125-36.175781 12.097656-55.417968zm-71.871094-88.59375c.710937.402344 1.328125.914063 2.023437 1.328125h-26.953124v-27.472656c5.550781 10.984375 14.222656 20.078125 24.929687 26.144531zm-73.960937-128.429687c-.941407-5.53125.609374-11.199219 4.234374-15.480469 3.738282-4.105469 9.03125-6.441406 14.582032-6.441406 5.550781 0 10.847656 2.335937 14.585937 6.441406 3.632813 4.28125 5.195313 9.949219 4.261719 15.488281-1.855469 11.265625-1.128906 22.808594 2.128906 33.75h-41.886718c3.242187-10.949218 3.957031-22.492187 2.09375-33.757812zm-29.152344 57.757812c0-4.417968 3.582031-8 8-8h80c4.417968 0 8 3.582032 8 8 0 4.417969-3.582032 8-8 8h-80c-4.417969 0-8-3.582031-8-8zm30.183594 72v-48h32v48zm32 16v44.671875c-.007813 6.207031-1.453126 12.328125-4.222657 17.882813l-11.777343 23.558594-11.773438-23.558594c-2.769531-5.554688-4.214844-11.675782-4.226562-17.882813v-44.671875zm-69.292969-17.328125c8.554687-4.867187 15.851562-11.675781 21.292969-19.878906v21.207031h-23.316407c.695313-.414062 1.316407-.925781 2.023438-1.328125zm153.34375 187.199219c-.226563.328125-.449219.664062-.6875 1-1.28125 1.808594-2.761719 3.457031-4.167969 5.160156h-39.195312v16h21.785156c-7.863282 5.570313-16.589844 9.808594-25.832032 12.546875l-.464843.117188c-3.371094.9375-6.800781 1.671875-10.261719 2.195312-.753906.109375-1.488281.246094-2.242188.34375-3.765624.511719-7.558593.777344-11.359374.796875h-51.625c-3.789063-.019531-7.570313-.285156-11.328126-.796875-.796874-.097656-1.511718-.234375-2.269531-.34375-3.441406-.523437-6.847656-1.253906-10.199219-2.1875l-.539062-.132812c-7.625-2.210938-14.917969-5.4375-21.679688-9.601563l-.078124-.046875c-3.3125-2.042969-6.480469-4.308593-9.488282-6.777343l-.273437-.207032c-6.007813-4.957031-11.335938-10.683594-15.839844-17.039062-.246094-.351563-.488281-.714844-.726563-1.066406-2.1875-3.144532-4.164062-6.425782-5.921874-9.832032h208.320312c-1.757812 3.40625-3.738281 6.695313-5.925781 9.839844zm15.261719-43.253906c-.09375 1.320312-.199219 2.632812-.351563 3.9375-.207031 1.710937-.472656 3.421875-.800781 5.117187-.125.722657-.261719 1.433594-.414063 2.144531-.425781 2.066407-.894531 4.121094-1.472656 6.160157v.054687h-220.910156v-.054687c-.578125-2.039063-1.050781-4.09375-1.472657-6.152344-.144531-.71875-.289062-1.4375-.425781-2.160156-.304687-1.695313-.570312-3.394531-.800781-5.101563-.160156-1.3125-.261719-2.632812-.359375-3.953125-.09375-1.320312-.207031-2.566406-.246094-3.855469-.058593-2.753906-.058593-5.480468.109375-8.242187l2.648438-42.246094c.28125-4.164062.800781-8.3125 1.554687-12.417969.207031-1.183593.46875-2.398437.71875-3.542968.640625-3.039063 1.402344-6.035156 2.289063-8.992188.335937-1.113281.628906-2.238281 1-3.335937 1.257812-3.808594 2.71875-7.546875 4.375-11.199219.359375-.800781.800781-1.527344 1.183594-2.304688 1.375-2.816406 2.867187-5.566406 4.472656-8.253906.800781-1.371094 1.695312-2.714844 2.574218-4.050781 1.351563-2.046875 2.792969-4.046875 4.28125-6.007813 1.023438-1.34375 2.015626-2.710937 3.105469-4 2.328125-2.792968 4.796875-5.488281 7.390625-8.054687l.097656-.105469h44.140626v44.671875c.011718 8.691407 2.035156 17.261719 5.914062 25.042969l11.777344 23.542969c2.707031 5.421875 8.25 8.847656 14.308594 8.847656 6.0625 0 11.605468-3.425781 14.3125-8.847656l11.777343-23.554688c3.875-7.773437 5.898438-16.339843 5.910157-25.03125v-44.671875h47.777343l.097657.105469c2.605468 2.566406 5.0625 5.261719 7.390624 8.054687 1.089844 1.304688 2.082032 2.671876 3.105469 4 1.488281 1.960938 2.925781 4 4.277344 6.007813.882813 1.335937 1.753906 2.679687 2.578125 4.050781 1.597656 2.664063 3.089844 5.417969 4.472656 8.253906.375.800782.796875 1.519532 1.183594 2.304688 1.65625 3.652344 3.117188 7.390625 4.375 11.199219.367188 1.097656.664062 2.222656 1 3.335937.890625 2.960938 1.652344 5.957032 2.289062 8.992188.246094 1.183594.511719 2.398437.71875 3.542968.765626 4.105469 1.296876 8.253907 1.601563 12.417969l2.636719 42.246094c.167968 2.753906.179687 5.488281.097656 8.203125-.078125 1.285156-.191406 2.582031-.289062 3.871094zm0 0"/><path d="m376.085938 72.019531h-2.230469l-.910157-2.722656c-3.035156-9.144531-3.796874-18.890625-2.226562-28.398437 2.296875-13.75-3.753906-27.554688-15.425781-35.179688-11.667969-7.625-26.742188-7.625-38.410157 0-11.671874 7.625-17.722656 21.429688-15.425781 35.179688 1.570313 9.503906.808594 19.246093-2.21875 28.390624l-.910156 2.722657h-2.242187c-13.253907 0-24 10.742187-24 24 0 13.253906 10.746093 24 24 24h8v108.671875c.011718 8.691406 2.035156 17.265625 5.914062 25.046875l11.777344 23.550781c2.707031 5.421875 8.25 8.847656 14.308594 8.847656 6.0625 0 11.605468-3.425781 14.3125-8.847656l11.777343-23.558594c3.875-7.78125 5.898438-16.351562 5.910157-25.039062v-108.664063h8c13.257812 0 24-10.746093 24-24 0-13.257812-10.742188-24-24-24zm-58.847657-33.746093c-.929687-5.542969.632813-11.210938 4.273438-15.496094 3.734375-4.105469 9.027343-6.445313 14.574219-6.445313 5.550781 0 10.84375 2.339844 14.578124 6.445313 3.640626 4.28125 5.203126 9.949218 4.273438 15.488281-1.867188 11.265625-1.152344 22.804687 2.09375 33.753906h-41.886719c3.242188-10.945312 3.960938-22.484375 2.09375-33.746093zm34.847657 190.410156c-.007813 6.210937-1.453126 12.335937-4.222657 17.894531l-11.777343 23.550781-11.773438-23.550781c-2.769531-5.558594-4.214844-11.683594-4.226562-17.894531v-108.664063h32zm24-124.664063h-80c-4.417969 0-8-3.582031-8-8s3.582031-8 8-8h80c4.421874 0 8 3.582031 8 8s-3.578126 8-8 8zm0 0"/><path d="m342.742188 305.691406c-1.566407-2.097656-4.035157-3.335937-6.65625-3.335937-2.617188 0-5.085938 1.238281-6.652344 3.335937l-23.128906 34.6875c-6.675782 9.988282-10.230469 21.738282-10.21875 33.75 0 22.09375 17.910156 40 40 40 22.09375 0 40-17.90625 40-40 .015624-12.011718-3.539063-23.761718-10.214844-33.75zm-6.65625 92.4375c-13.253907 0-24-10.742187-24-24-.007813-8.851562 2.609374-17.507812 7.53125-24.871094l16.46875-24.726562 16.472656 24.703125c4.925781 7.367187 7.542968 16.035156 7.527344 24.894531 0 13.257813-10.742188 24-24 24zm0 0"/><path d="m49.433594 217.691406-6.066406 9.09375c-7.367188 11.027344-11.292969 23.996094-11.28125 37.257813v6.085937c0 4.417969 3.582031 8 8 8 4.421874 0 8-3.582031 8-8v-6.085937c-.007813-10.105469 2.984374-19.984375 8.59375-28.386719l6.0625-9.085938c2.453124-3.675781 1.460937-8.644531-2.214844-11.097656-3.675782-2.449218-8.644532-1.457031-11.09375 2.21875zm0 0"/><path d="m40.085938 294.128906c-4.417969 0-8 3.582032-8 8v8c0 4.417969 3.582031 8 8 8 4.421874 0 8-3.582031 8-8v-8c0-4.417968-3.578126-8-8-8zm0 0"/><path d="m120.085938 366.128906h16v16h-16zm0 0"/><path d="m152.085938 366.128906h16v16h-16zm0 0"/></svg>